<svg xmlns="http://www.w3.org/2000/svg" viewBox="91.375 1317.19 12.806 17.651">
  <defs>
    <style>
      .cls-1 {
        fill: #fff;
      }
    </style>
  </defs>
  <path id="Path_48" data-name="Path 48" class="cls-1" d="M12.386,10.091a2.967,2.967,0,0,0-1.133-1.118A5.8,5.8,0,0,0,9.827,8.45a4.263,4.263,0,0,0,1.4-.748,3.163,3.163,0,0,0,.812-1.043,2.869,2.869,0,0,0,.282-1.247,2.831,2.831,0,0,0-.532-1.661,3.355,3.355,0,0,0-1.523-1.161A5.51,5.51,0,0,0,8.86,2.261V0H7V2.184h-1.2V0H3.947V2.184H0V4.022H.523a1.775,1.775,0,0,1,.709.1.557.557,0,0,1,.261.257,2.2,2.2,0,0,1,.076.752v7.408a2.249,2.249,0,0,1-.076.747.523.523,0,0,1-.261.257,1.854,1.854,0,0,1-.709.091H0v1.838H3.947v2.183H5.8V15.468H7v2.184H8.859V15.359A6.28,6.28,0,0,0,10.367,15a3.954,3.954,0,0,0,1.8-1.358,3.272,3.272,0,0,0,.638-1.948A3.143,3.143,0,0,0,12.386,10.091ZM4.856,4.327H6.311a6.711,6.711,0,0,1,1.771.157,1.424,1.424,0,0,1,.757.528,1.519,1.519,0,0,1,.262.9,1.485,1.485,0,0,1-.277.89A1.629,1.629,0,0,1,8,7.375a5.522,5.522,0,0,1-1.69.191H4.856Zm4.114,8.207a1.823,1.823,0,0,1-.946.652,5.24,5.24,0,0,1-1.4.158H5.654a1.9,1.9,0,0,1-.594-.053.312.312,0,0,1-.157-.186,3.549,3.549,0,0,1-.048-.715V9.516H6.573a5.057,5.057,0,0,1,1.683.21,1.676,1.676,0,0,1,.826.619,1.754,1.754,0,0,1,.276,1A1.862,1.862,0,0,1,8.969,12.534Z" transform="translate(91.375 1317.19)"/>
</svg>
