<svg xmlns="http://www.w3.org/2000/svg" viewBox="-265.756 944.958 28.204 30.195"><defs><style>.a{fill:#fff;}</style></defs><g transform="translate(-265.756 944.958)"><path class="a" d="M18.5,12.62a2.411,2.411,0,0,0,2.223-1.478,10.254,10.254,0,0,1,9.446-6.3,10.113,10.113,0,0,1,6.211,2.134l-1.349.209a1.053,1.053,0,0,0-.271,2l7.421,3.339a1.053,1.053,0,0,0,1.485-.955L43.7,3.4a1.053,1.053,0,0,0-1.929-.588L40.748,4.344A15.081,15.081,0,0,0,16.255,9.238,2.434,2.434,0,0,0,18.5,12.62Z" transform="translate(-16.062)"/><path class="a" d="M52.426,284.68a2.42,2.42,0,0,0-4.251.388,10.254,10.254,0,0,1-9.446,6.3,10.113,10.113,0,0,1-6.212-2.135l1.35-.209a1.053,1.053,0,0,0,.271-2l-7.421-3.339a1.053,1.053,0,0,0-1.485.955l-.039,8.177a1.053,1.053,0,0,0,1.929.588l1.023-1.537a15.081,15.081,0,0,0,24.494-4.893A2.433,2.433,0,0,0,52.426,284.68Z" transform="translate(-24.627 -266.015)"/></g></svg>