<svg xmlns="http://www.w3.org/2000/svg" viewBox="790.488 1122.719 21.733 16.507">
  <defs>
    <style>
      .cls-1 {
        fill: #7e909c;
        opacity: 0.359;
      }
    </style>
  </defs>
  <path id="message-closed-envelope" class="cls-1" d="M19.154,45.945H2.58A2.533,2.533,0,0,0,0,48.422V59.975a2.533,2.533,0,0,0,2.58,2.477H19.154a2.533,2.533,0,0,0,2.579-2.477V48.422A2.533,2.533,0,0,0,19.154,45.945Zm0,14.32H2.58c-.209,0-.392-.136-.392-.29V49.95l7.5,6.329a.854.854,0,0,0,.55.2H11.5a.854.854,0,0,0,.55-.2l7.5-6.329V59.975C19.546,60.129,19.363,60.265,19.154,60.265Zm-8.287-5.957L3.576,48.132H18.158Z" transform="translate(790.488 1076.774)"/>
</svg>
