<svg xmlns="http://www.w3.org/2000/svg" viewBox="275 1413 19.139 20.434">
  <defs>
    <style>
      .cls-1 {
        fill: #fff;
      }
    </style>
  </defs>
  <path id="Union_1" data-name="Union 1" class="cls-1" d="M-14627.566-16064.918a4.338,4.338,0,0,1,.691-2.355,1.778,1.778,0,0,0-.389-2.01,1.867,1.867,0,0,0-2.318.121,4.355,4.355,0,0,1-4.064,2.793,4.352,4.352,0,0,1-4.354-4.352,4.354,4.354,0,0,1,4.354-4.354,4.35,4.35,0,0,1,3.9,2.418,2.773,2.773,0,0,0,1.219.813,1.654,1.654,0,0,0,1.945-2.051,4.337,4.337,0,0,1-.982-2.754,4.352,4.352,0,0,1,4.354-4.352,4.352,4.352,0,0,1,4.352,4.352,4.353,4.353,0,0,1-4.352,4.354,4.34,4.34,0,0,1-.58-.039,1.647,1.647,0,0,0-1.4,1.428,1.732,1.732,0,0,0,1.047,1.734,4.434,4.434,0,0,1,.932-.1,4.352,4.352,0,0,1,4.352,4.352,4.352,4.352,0,0,1-4.352,4.352A4.352,4.352,0,0,1-14627.566-16064.918Z" transform="translate(14913 17494)"/>
</svg>
