<svg xmlns="http://www.w3.org/2000/svg" viewBox="818.419 1531.063 14.236 14.156">
  <defs>
    <style>
      .cls-1 {
        fill: #85949f;
      }
    </style>
  </defs>
  <path id="Path_202" data-name="Path 202" class="cls-1" d="M13.92,12.3,10.985,9.386a5.8,5.8,0,0,0,1.061-3.394,5.854,5.854,0,0,0-.475-2.327,5.984,5.984,0,0,0-1.283-1.914A6.024,6.024,0,0,0,8.363.475a6.034,6.034,0,0,0-4.68,0A6.023,6.023,0,0,0,1.758,1.751,5.985,5.985,0,0,0,.475,3.665a5.938,5.938,0,0,0,0,4.653,5.984,5.984,0,0,0,1.283,1.914,6.025,6.025,0,0,0,1.925,1.276,5.948,5.948,0,0,0,2.34.472,5.883,5.883,0,0,0,3.414-1.055l2.935,2.909a1.019,1.019,0,0,0,.77.323,1.055,1.055,0,0,0,.77-.323A1.074,1.074,0,0,0,13.92,12.3ZM8.731,8.684A3.7,3.7,0,0,1,6.023,9.8,3.7,3.7,0,0,1,3.315,8.684,3.66,3.66,0,0,1,2.19,5.992,3.66,3.66,0,0,1,3.315,3.3,3.7,3.7,0,0,1,6.023,2.181,3.7,3.7,0,0,1,8.731,3.3,3.66,3.66,0,0,1,9.856,5.992,3.66,3.66,0,0,1,8.731,8.684Z" transform="translate(818.419 1531.06)"/>
</svg>
