<svg xmlns="http://www.w3.org/2000/svg" viewBox="984 480 16.86 16.86">
  <defs>
    <style>
      .cls-1 {
        fill: #fff;
      }
    </style>
  </defs>
  <g id="sharethis-logo" transform="translate(983.999 480)">
    <path id="ShareThis" class="cls-1" d="M5.952,8.43c0,.058-.013.112-.017.17l6.041,3.02a2.945,2.945,0,0,1,1.91-.711,2.976,2.976,0,1,1-2.975,2.975c0-.059.013-.112.016-.17l-6.041-3.02a2.976,2.976,0,1,1,0-4.53l6.041-3.02c0-.058-.016-.112-.016-.171a2.975,2.975,0,1,1,2.975,2.977,2.942,2.942,0,0,1-1.91-.713L5.935,8.259C5.938,8.317,5.952,8.371,5.952,8.43Z"/>
  </g>
</svg>
