<svg xmlns="http://www.w3.org/2000/svg" viewBox="-301 625.763 97.765 120.759"><defs><style>.a{fill:#4ba9ff;}.b,.d{fill:#29475b;}.c,.d{stroke:none;}</style></defs><g transform="translate(-300 625.763)"><path class="a" d="M31.355,79.461h0a12.192,12.192,0,0,1-2.742-.353C27.7,78.591,6.261,66.42,3.117,64.462a7.285,7.285,0,0,1-1.839-1.6,6,6,0,0,1-.921-1.578A4.764,4.764,0,0,1,0,59.6c0-.463.076-46.332,0-49.656A7.2,7.2,0,0,1,.267,7.781,5.81,5.81,0,0,1,.925,6.3,4.23,4.23,0,0,1,1.905,5.18C1.975,5.137,8.954.836,10.728.138A1.809,1.809,0,0,1,11.386,0a1.228,1.228,0,0,1,.769.264,1.86,1.86,0,0,1,.475.581,3.105,3.105,0,0,1,.309.845V19.218l.067-.039c2.226-1.277,13.436-7.7,15.536-8.722a5.2,5.2,0,0,1,2.3-.5,7.236,7.236,0,0,1,2.6.5c.212.121,21.265,12.165,25.048,14.525A9.175,9.175,0,0,1,60.664,26.8a5.812,5.812,0,0,1,1,1.657,3.656,3.656,0,0,1,.276,1.672c0,.266.16,26.595,0,29.314a5.591,5.591,0,0,1-.459,1.885,7.187,7.187,0,0,1-.853,1.456,7.558,7.558,0,0,1-1.19,1.271C59.2,64.2,35.2,78.326,33.406,79.108A5.177,5.177,0,0,1,31.355,79.461ZM13.06,36.3c0,.578-.042,14.171-.034,16.171a3.4,3.4,0,0,0,.29,1.358,4.06,4.06,0,0,0,.629,1,4.435,4.435,0,0,0,.913.82L29,63.9l-.091-18.548Zm35.778,0L32.821,45.65,32.9,63.9c.09-.052,12.242-7.019,14.023-8.056a3.4,3.4,0,0,0,1.031-.93,4.041,4.041,0,0,0,.547-1.043,4.382,4.382,0,0,0,.254-1.2ZM31.05,24.873a4.517,4.517,0,0,0-1.926.451L14.9,33.44l16.108,9.195,15.77-9.195c-.09-.052-12.214-7.1-13.988-8.115A3.456,3.456,0,0,0,31.05,24.873Z" transform="translate(13.36 0)"/><g transform="translate(0 89.362)"><g class="b" transform="translate(-231.834 -470.6)"><path class="c" d="M 261.2253723144531 501.0508728027344 L 260.7253723144531 501.0508728027344 L 257.992431640625 501.0508728027344 L 257.492431640625 501.0508728027344 L 257.492431640625 500.5508728027344 L 257.492431640625 479.3565673828125 L 257.492431640625 478.8565673828125 L 257.992431640625 478.8565673828125 L 260.7253723144531 478.8565673828125 L 261.2253723144531 478.8565673828125 L 261.2253723144531 479.3565673828125 L 261.2253723144531 500.5508728027344 L 261.2253723144531 501.0508728027344 Z M 259.3310546875 475.6177978515625 C 258.5913391113281 475.6177978515625 257.96484375 475.3509521484375 257.4157409667969 474.8020324707031 C 256.8667907714844 474.2529907226563 256.5999755859375 473.6265258789063 256.5999755859375 472.8867492675781 C 256.5999755859375 472.1310119628906 256.8820190429688 471.449462890625 257.4156799316406 470.9157409667969 C 257.9646301269531 470.3667907714844 258.5911560058594 470.0999755859375 259.3310546875 470.0999755859375 C 260.1007995605469 470.0999755859375 260.7843627929688 470.3937072753906 261.2579650878906 470.9274597167969 C 261.7839660644531 471.4593811035156 262.0619201660156 472.1365356445313 262.0619201660156 472.8867492675781 C 262.0619201660156 473.6564636230469 261.7682495117188 474.3400268554688 261.2345886230469 474.8136291503906 C 260.6882934570313 475.3547058105469 260.0654602050781 475.6177978515625 259.3310546875 475.6177978515625 Z"/><path class="d" d="M 260.7253723144531 500.5508728027344 L 260.7253723144531 479.3565673828125 L 257.992431640625 479.3565673828125 L 257.992431640625 500.5508728027344 L 260.7253723144531 500.5508728027344 M 259.3310546875 475.1177978515625 C 259.9444885253906 475.1177978515625 260.4465026855469 474.89453125 260.8927307128906 474.4484252929688 C 261.3388977050781 474.0579833984375 261.5619201660156 473.5003051757813 261.5619201660156 472.8867492675781 C 261.5619201660156 472.273193359375 261.3388366699219 471.7154541015625 260.8927307128906 471.2692565917969 C 260.5023193359375 470.8230590820313 259.9444885253906 470.5999755859375 259.3310546875 470.5999755859375 C 258.7174682617188 470.5999755859375 258.2154846191406 470.8230590820313 257.7692565917969 471.2692565917969 C 257.3231201171875 471.7154541015625 257.0999755859375 472.273193359375 257.0999755859375 472.8867492675781 C 257.0999755859375 473.5001831054688 257.3231201171875 474.0022277832031 257.7692565917969 474.4484252929688 C 258.2154846191406 474.89453125 258.7174682617188 475.1177978515625 259.3310546875 475.1177978515625 M 261.7253723144531 501.5508728027344 L 260.7253723144531 501.5508728027344 L 257.992431640625 501.5508728027344 L 256.992431640625 501.5508728027344 L 256.992431640625 500.5508728027344 L 256.992431640625 479.3565673828125 L 256.992431640625 478.3565673828125 L 257.992431640625 478.3565673828125 L 260.7253723144531 478.3565673828125 L 261.7253723144531 478.3565673828125 L 261.7253723144531 479.3565673828125 L 261.7253723144531 500.5508728027344 L 261.7253723144531 501.5508728027344 Z M 259.3310546875 476.1177978515625 C 258.4642028808594 476.1177978515625 257.7008972167969 475.7940673828125 257.062255859375 475.1556396484375 C 256.4236755371094 474.5169677734375 256.0999755859375 473.753662109375 256.0999755859375 472.8867492675781 C 256.0999755859375 471.9955444335938 256.4326477050781 471.1917419433594 257.0621032714844 470.5621948242188 C 257.7006530761719 469.9236755371094 258.4640197753906 469.5999755859375 259.3310546875 469.5999755859375 C 260.2410278320313 469.5999755859375 261.0534362792969 469.9496154785156 261.6227416992188 470.5852661132813 C 262.2373352050781 471.2113037109375 262.5619201660156 472.00634765625 262.5619201660156 472.8867492675781 C 262.5619201660156 473.7966003417969 262.2124328613281 474.6089172363281 261.5769348144531 475.1782531738281 C 260.9429626464844 475.8016967773438 260.1875 476.1177978515625 259.3310546875 476.1177978515625 Z"/></g><g class="b" transform="translate(-238.114 -471.263)"><path class="c" d="M 278.214111328125 501.7143249511719 L 277.714111328125 501.7143249511719 L 274.9811401367188 501.7143249511719 L 274.4811401367188 501.7143249511719 L 274.4811401367188 501.2143249511719 L 274.4811401367188 482.8625793457031 L 271.300048828125 482.8625793457031 L 270.800048828125 482.8625793457031 L 270.800048828125 482.3625793457031 L 270.800048828125 480.02001953125 L 270.800048828125 479.52001953125 L 271.300048828125 479.52001953125 L 274.4811401367188 479.52001953125 L 274.4811401367188 472.1000366210938 L 274.4811401367188 471.6000366210938 L 274.9811401367188 471.6000366210938 L 277.714111328125 471.6000366210938 L 278.214111328125 471.6000366210938 L 278.214111328125 472.1000366210938 L 278.214111328125 479.52001953125 L 282.0087280273438 479.52001953125 L 282.5087280273438 479.52001953125 L 282.5087280273438 480.02001953125 L 282.5087280273438 482.3625793457031 L 282.5087280273438 482.8625793457031 L 282.0087280273438 482.8625793457031 L 278.214111328125 482.8625793457031 L 278.214111328125 501.2143249511719 L 278.214111328125 501.7143249511719 Z"/><path class="d" d="M 277.714111328125 501.2143249511719 L 277.714111328125 482.3625793457031 L 282.0087280273438 482.3625793457031 L 282.0087280273438 480.02001953125 L 277.714111328125 480.02001953125 L 277.714111328125 472.1000366210938 L 274.9811401367188 472.1000366210938 L 274.9811401367188 480.02001953125 L 271.300048828125 480.02001953125 L 271.300048828125 482.3625793457031 L 274.9811401367188 482.3625793457031 L 274.9811401367188 501.2143249511719 L 277.714111328125 501.2143249511719 M 278.714111328125 502.2143249511719 L 277.714111328125 502.2143249511719 L 274.9811401367188 502.2143249511719 L 273.9811401367188 502.2143249511719 L 273.9811401367188 501.2143249511719 L 273.9811401367188 483.3625793457031 L 271.300048828125 483.3625793457031 L 270.300048828125 483.3625793457031 L 270.300048828125 482.3625793457031 L 270.300048828125 480.02001953125 L 270.300048828125 479.02001953125 L 271.300048828125 479.02001953125 L 273.9811401367188 479.02001953125 L 273.9811401367188 472.1000366210938 L 273.9811401367188 471.1000366210938 L 274.9811401367188 471.1000366210938 L 277.714111328125 471.1000366210938 L 278.714111328125 471.1000366210938 L 278.714111328125 472.1000366210938 L 278.714111328125 479.02001953125 L 282.0087280273438 479.02001953125 L 283.0087280273438 479.02001953125 L 283.0087280273438 480.02001953125 L 283.0087280273438 482.3625793457031 L 283.0087280273438 483.3625793457031 L 282.0087280273438 483.3625793457031 L 278.714111328125 483.3625793457031 L 278.714111328125 501.2143249511719 L 278.714111328125 502.2143249511719 Z"/></g><g class="b" transform="translate(-246.738 -477.543)"><path class="c" d="M 299.0545959472656 507.9942932128906 L 298.8872375488281 507.9942932128906 L 290.7999877929688 507.9942932128906 L 290.2999877929688 507.9942932128906 L 290.2999877929688 507.4942932128906 L 290.2999877929688 505.0401916503906 L 290.2999877929688 504.5401916503906 L 290.7999877929688 504.5401916503906 L 291.1346740722656 504.5401916503906 L 298.8872375488281 504.5401916503906 L 298.9430236816406 504.5401916503906 C 299.8935546875 504.5401916503906 300.7223510742188 504.242919921875 301.4064025878906 503.6566162109375 C 302.0770568847656 503.081787109375 302.403076171875 502.4397277832031 302.403076171875 501.6937561035156 C 302.403076171875 501.064453125 302.1835327148438 500.5014038085938 301.7505493164063 500.0202941894531 L 301.74267578125 500.0115356445313 L 301.7352294921875 500.00244140625 C 301.2948608398438 499.4641723632813 300.1902160644531 498.7781372070313 298.4519653320313 497.96337890625 L 298.4462585449219 497.960693359375 L 298.4405822753906 497.9578552246094 C 296.4512939453125 496.9631958007813 295.0804443359375 495.9780578613281 294.3657836914063 495.0295715332031 C 293.5924072265625 494.0742797851563 293.2002258300781 492.9199523925781 293.2002258300781 491.5985717773438 C 293.2002258300781 489.9335021972656 293.8188781738281 488.5324096679688 295.0390319824219 487.4342346191406 C 296.2439880371094 486.3497924804688 297.763916015625 485.7999267578125 299.5565795898438 485.7999267578125 L 305.4129028320313 485.7999267578125 L 305.9129028320313 485.7999267578125 L 305.9129028320313 486.2999267578125 L 305.9129028320313 488.6425476074219 L 305.9129028320313 489.1425476074219 L 305.4129028320313 489.1425476074219 L 299.5566101074219 489.1425476074219 L 299.4450988769531 489.1425476074219 C 298.6665954589844 489.1425476074219 298.0103759765625 489.3802795410156 297.49462890625 489.84912109375 C 296.9740600585938 490.3223876953125 296.7101135253906 490.8547058105469 296.7101135253906 491.4312744140625 C 296.7101135253906 491.9520874023438 296.9223327636719 492.4540405273438 297.3779602050781 493.010986328125 C 297.8997802734375 493.6487121582031 299.3233337402344 494.4088745117188 300.5052490234375 494.9998474121094 C 302.6846618652344 496.0894470214844 304.0513305664063 497.0566101074219 304.8061218261719 498.0435791015625 C 305.5775451660156 499.0524291992188 305.9686584472656 500.2242126464844 305.9686584472656 501.5264587402344 C 305.9686584472656 503.3154296875 305.2973022460938 504.8632507324219 303.9732666015625 506.126953125 C 302.6568908691406 507.3834838867188 301.0479736328125 507.9942932128906 299.0545959472656 507.9942932128906 Z"/><path class="d" d="M 299.0545959472656 507.4942932128906 C 300.8951721191406 507.4942932128906 302.4010314941406 506.9364929199219 303.6280517578125 505.7652587890625 C 304.8551635742188 504.5940551757813 305.4686584472656 503.1996765136719 305.4686584472656 501.5264587402344 C 305.4686584472656 500.3551940917969 305.1339721679688 499.2954711914063 304.4089660644531 498.3473205566406 C 303.683837890625 497.399169921875 302.2895202636719 496.4508972167969 300.2816162109375 495.4470520019531 C 298.6084289550781 494.6104125976563 297.4929504394531 493.9410705566406 296.990966796875 493.3275756835938 C 296.489013671875 492.7140197753906 296.2101135253906 492.1005249023438 296.2101135253906 491.4312744140625 C 296.2101135253906 490.7062683105469 296.5447692871094 490.0369262695313 297.1582946777344 489.4791564941406 C 297.7718200683594 488.9214172363281 298.5526428222656 488.6425476074219 299.4450988769531 488.6425476074219 C 299.5008544921875 488.6425476074219 299.5566101074219 488.6425476074219 299.5566101074219 488.6425476074219 L 305.4129028320313 488.6425476074219 L 305.4129028320313 486.2999267578125 L 299.5565795898438 486.2999267578125 C 297.8833618164063 486.2999267578125 296.489013671875 486.8019409179688 295.3735046386719 487.8058776855469 C 294.258056640625 488.8098449707031 293.7002258300781 490.0927124023438 293.7002258300781 491.5985717773438 C 293.7002258300781 492.7698364257813 294.034912109375 493.82958984375 294.7600402832031 494.7218933105469 C 295.4292602539063 495.6143493652344 296.7679138183594 496.5625 298.6641845703125 497.5106506347656 C 300.448974609375 498.3472290039063 301.6202392578125 499.072265625 302.1222229003906 499.6858215332031 C 302.6241760253906 500.2435913085938 302.903076171875 500.9129028320313 302.903076171875 501.6937561035156 C 302.903076171875 502.5859985351563 302.5126342773438 503.3669738769531 301.7317810058594 504.0362548828125 C 300.950927734375 504.7055358886719 300.0027465820313 505.0401916503906 298.9430236816406 505.0401916503906 L 298.8872375488281 505.0401916503906 L 291.1346740722656 505.0401916503906 L 290.7999877929688 505.0401916503906 L 290.7999877929688 507.4942932128906 L 298.8872375488281 507.4942932128906 C 298.9430236816406 507.4942932128906 298.9988708496094 507.4942932128906 299.0545959472656 507.4942932128906 M 299.0545959472656 508.4942932128906 L 298.8872375488281 508.4942932128906 L 290.7999877929688 508.4942932128906 L 289.7999877929688 508.4942932128906 L 289.7999877929688 507.4942932128906 L 289.7999877929688 505.0401916503906 L 289.7999877929688 504.0401916503906 L 290.7999877929688 504.0401916503906 L 291.1346740722656 504.0401916503906 L 298.8872375488281 504.0401916503906 L 298.9430236816406 504.0401916503906 C 299.7708435058594 504.0401916503906 300.4901428222656 503.7834167480469 301.0809936523438 503.2769775390625 C 301.641845703125 502.7962646484375 301.903076171875 502.2931823730469 301.903076171875 501.6937561035156 C 301.903076171875 501.1846923828125 301.7316284179688 500.7467041015625 301.37890625 500.3547668457031 L 301.3631591796875 500.3372497558594 L 301.3482360839844 500.3190307617188 C 301.1272583007813 500.0489196777344 300.4295349121094 499.4425048828125 298.2397766113281 498.4161376953125 L 298.2283020019531 498.4107360839844 L 298.2169799804688 498.4050598144531 C 296.1629638671875 497.3780517578125 294.7349243164063 496.34619140625 293.971923828125 495.3376770019531 C 293.1280212402344 494.2923889160156 292.7002258300781 493.0345458984375 292.7002258300781 491.5985717773438 C 292.7002258300781 489.811279296875 293.393310546875 488.2427673339844 294.7045288085938 487.0625915527344 C 296.004150390625 485.8929748535156 297.6365966796875 485.2999267578125 299.5565795898438 485.2999267578125 L 305.4129028320313 485.2999267578125 L 306.4129028320313 485.2999267578125 L 306.4129028320313 486.2999267578125 L 306.4129028320313 488.6425476074219 L 306.4129028320313 489.6425476074219 L 305.4129028320313 489.6425476074219 L 299.5566101074219 489.6425476074219 L 299.4450988769531 489.6425476074219 C 298.7948913574219 489.6425476074219 298.2518005371094 489.8365173339844 297.8309631347656 490.2190856933594 C 297.4190063476563 490.5936279296875 297.2101135253906 491.00146484375 297.2101135253906 491.4312744140625 C 297.2101135253906 491.830322265625 297.3864135742188 492.231689453125 297.7649536132813 492.6943664550781 C 298.23193359375 493.2651062011719 299.6801452636719 494.0282592773438 300.7288513183594 494.5526428222656 C 302.9787902832031 495.6774597167969 304.4005737304688 496.6902465820313 305.2033081054688 497.7398376464844 C 306.0429382324219 498.8379211425781 306.4686584472656 500.1119079589844 306.4686584472656 501.5264587402344 C 306.4686584472656 503.4573974609375 305.7452392578125 505.1269226074219 304.3184814453125 506.4886474609375 C 302.9242553710938 507.8194885253906 301.1532287597656 508.4942932128906 299.0545959472656 508.4942932128906 Z"/></g><g class="b" transform="translate(-261.112 -471.263)"><path class="c" d="M 330.2698364257813 501.7143249511719 L 329.7698364257813 501.7143249511719 L 327.0369262695313 501.7143249511719 L 326.5369262695313 501.7143249511719 L 326.5369262695313 501.2143249511719 L 326.5369262695313 482.8625793457031 L 323.3000183105469 482.8625793457031 L 322.8000183105469 482.8625793457031 L 322.8000183105469 482.3625793457031 L 322.8000183105469 480.02001953125 L 322.8000183105469 479.52001953125 L 323.3000183105469 479.52001953125 L 326.5369262695313 479.52001953125 L 326.5369262695313 472.1000366210938 L 326.5369262695313 471.6000366210938 L 327.0369262695313 471.6000366210938 L 329.7698364257813 471.6000366210938 L 330.2698364257813 471.6000366210938 L 330.2698364257813 472.1000366210938 L 330.2698364257813 479.52001953125 L 334.0645141601563 479.52001953125 L 334.5645141601563 479.52001953125 L 334.5645141601563 480.02001953125 L 334.5645141601563 482.3625793457031 L 334.5645141601563 482.8625793457031 L 334.0645141601563 482.8625793457031 L 330.2698364257813 482.8625793457031 L 330.2698364257813 501.2143249511719 L 330.2698364257813 501.7143249511719 Z"/><path class="d" d="M 329.7698364257813 501.2143249511719 L 329.7698364257813 482.3625793457031 L 334.0645141601563 482.3625793457031 L 334.0645141601563 480.02001953125 L 329.7698364257813 480.02001953125 L 329.7698364257813 472.1000366210938 L 327.0369262695313 472.1000366210938 L 327.0369262695313 480.02001953125 L 323.3000183105469 480.02001953125 L 323.3000183105469 482.3625793457031 L 327.0369262695313 482.3625793457031 L 327.0369262695313 501.2143249511719 L 329.7698364257813 501.2143249511719 M 330.7698364257813 502.2143249511719 L 329.7698364257813 502.2143249511719 L 327.0369262695313 502.2143249511719 L 326.0369262695313 502.2143249511719 L 326.0369262695313 501.2143249511719 L 326.0369262695313 483.3625793457031 L 323.3000183105469 483.3625793457031 L 322.3000183105469 483.3625793457031 L 322.3000183105469 482.3625793457031 L 322.3000183105469 480.02001953125 L 322.3000183105469 479.02001953125 L 323.3000183105469 479.02001953125 L 326.0369262695313 479.02001953125 L 326.0369262695313 472.1000366210938 L 326.0369262695313 471.1000366210938 L 327.0369262695313 471.1000366210938 L 329.7698364257813 471.1000366210938 L 330.7698364257813 471.1000366210938 L 330.7698364257813 472.1000366210938 L 330.7698364257813 479.02001953125 L 334.0645141601563 479.02001953125 L 335.0645141601563 479.02001953125 L 335.0645141601563 480.02001953125 L 335.0645141601563 482.3625793457031 L 335.0645141601563 483.3625793457031 L 334.0645141601563 483.3625793457031 L 330.7698364257813 483.3625793457031 L 330.7698364257813 501.2143249511719 L 330.7698364257813 502.2143249511719 Z"/></g><g class="b" transform="translate(-270.133 -477.101)"><path class="c" d="M 354.7991333007813 507.9982299804688 C 351.4358215332031 507.9982299804688 348.63037109375 506.8386535644531 346.4607543945313 504.5517272949219 L 346.4585876464844 504.5494384765625 L 346.4564514160156 504.5471496582031 C 344.2956237792969 502.2112121582031 343.2000122070313 499.4885559082031 343.2000122070313 496.454833984375 C 343.2000122070313 493.40087890625 344.2087707519531 490.792236328125 346.283935546875 488.4797973632813 L 346.28662109375 488.476806640625 L 346.2893676757813 488.4738464355469 C 348.5489501953125 486.0359802246094 351.4120483398438 484.7998657226563 354.7991333007813 484.7998657226563 C 356.5008850097656 484.7998657226563 358.0783386230469 485.1092834472656 359.4876708984375 485.7195434570313 C 360.8900146484375 486.3267822265625 362.1755981445313 487.2533264160156 363.3086242675781 488.4735107421875 L 363.3115234375 488.4766235351563 L 363.3143615722656 488.4797973632813 C 365.3894958496094 490.7920532226563 366.3982543945313 493.4006958007813 366.3982543945313 496.454833984375 C 366.3982543945313 499.5925903320313 365.3324279785156 502.2403564453125 363.1397705078125 504.5494079589844 C 361.0217590332031 506.8380126953125 358.2156982421875 507.9982299804688 354.7991333007813 507.9982299804688 Z M 354.7991333007813 488.4771728515625 C 352.6336975097656 488.4771728515625 350.835693359375 489.2482604980469 349.3023681640625 490.8345031738281 C 347.7455444335938 492.4450378417969 346.9887390136719 494.3199768066406 346.9887390136719 496.5664367675781 C 346.9887390136719 497.9653625488281 347.34375 499.3301391601563 348.0439453125 500.6228637695313 C 348.7149047851563 501.8618469238281 349.63671875 502.8008117675781 350.8621520996094 503.4934387207031 C 352.0631103515625 504.1722412109375 353.3141174316406 504.4883728027344 354.7991333007813 504.4883728027344 C 356.2638244628906 504.4883728027344 357.5516967773438 504.1629333496094 358.7362976074219 503.493408203125 C 359.9616088867188 502.8008117675781 360.8834228515625 501.8618469238281 361.5543823242188 500.6228942871094 C 362.2644348144531 499.3120727539063 362.6095581054688 497.9852294921875 362.6095581054688 496.5664367675781 C 362.6095581054688 494.3526611328125 361.832275390625 492.4253540039063 360.2991638183594 490.8377685546875 C 358.7096252441406 489.2494201660156 356.9104309082031 488.4771728515625 354.7991333007813 488.4771728515625 Z"/><path class="d" d="M 354.7991333007813 507.4982299804688 C 358.0340576171875 507.4982299804688 360.7112121582031 506.4385375976563 362.7748413085938 504.2076110839844 C 364.8943481445313 501.9766235351563 365.8982543945313 499.4109191894531 365.8982543945313 496.454833984375 C 365.8982543945313 493.4988708496094 364.8943481445313 490.9889221191406 362.9422302246094 488.8137512207031 C 360.7669982910156 486.4712524414063 358.08984375 485.2998657226563 354.7991333007813 485.2998657226563 C 351.5085144042969 485.2998657226563 348.7755432128906 486.5270385742188 346.6560668945313 488.8137512207031 C 344.7040100097656 490.9889831542969 343.7000122070313 493.4988708496094 343.7000122070313 496.454833984375 C 343.7000122070313 499.4109191894531 344.759765625 501.9766235351563 346.823486328125 504.2076110839844 C 348.8870849609375 506.3827819824219 351.5642700195313 507.4982299804688 354.7991333007813 507.4982299804688 M 354.7991333007813 487.9771728515625 C 357.0300903320313 487.9771728515625 358.9822998046875 488.8137512207031 360.6554870605469 490.4869995117188 C 362.2729187011719 492.1602783203125 363.1095581054688 494.2239379882813 363.1095581054688 496.5664367675781 C 363.1095581054688 498.1280822753906 362.7191467285156 499.5223999023438 361.9940490722656 500.8609924316406 C 361.26904296875 502.1997375488281 360.2650146484375 503.2036437988281 358.9822998046875 503.9287109375 C 357.6994323730469 504.6537475585938 356.3051147460938 504.9883728027344 354.7991333007813 504.9883728027344 C 353.2375183105469 504.9883728027344 351.8988952636719 504.6537475585938 350.6161193847656 503.9287109375 C 349.3332824707031 503.2036437988281 348.3292541503906 502.1997375488281 347.6042785644531 500.8609924316406 C 346.8792724609375 499.5223999023438 346.4887390136719 498.0723571777344 346.4887390136719 496.5664367675781 C 346.4887390136719 494.1680297851563 347.3253784179688 492.1602783203125 348.94287109375 490.4869995117188 C 350.560302734375 488.8137512207031 352.5123901367188 487.9771728515625 354.7991333007813 487.9771728515625 M 354.7991333007813 508.4982299804688 C 351.2932434082031 508.4982299804688 348.3657531738281 507.2862243652344 346.0980224609375 504.8958740234375 L 346.0936584472656 504.8912963867188 L 346.0893859863281 504.8866577148438 C 343.8403625488281 502.4553527832031 342.7000122070313 499.6184692382813 342.7000122070313 496.454833984375 C 342.7000122070313 494.8694763183594 342.9739990234375 493.36328125 343.514404296875 491.9780883789063 C 344.0459289550781 490.6156005859375 344.8525390625 489.3262329101563 345.9118041992188 488.1458435058594 L 345.9171752929688 488.1398620605469 L 345.9226379394531 488.1339721679688 C 347.0809936523438 486.8842163085938 348.4154052734375 485.9248962402344 349.8888244628906 485.2825927734375 C 351.3847351074219 484.6304931640625 353.0368041992188 484.2998657226563 354.7991333007813 484.2998657226563 C 356.5696411132813 484.2998657226563 358.2139282226563 484.6231384277344 359.6863403320313 485.2607116699219 C 361.1526184082031 485.8955993652344 362.4945983886719 486.8620910644531 363.6750183105469 488.13330078125 L 363.6807861328125 488.1394958496094 L 363.6864624023438 488.1458129882813 C 364.7457580566406 489.326171875 365.5523681640625 490.6155090332031 366.0839233398438 491.9780578613281 C 366.624267578125 493.3632507324219 366.8982543945313 494.8694458007813 366.8982543945313 496.454833984375 C 366.8982543945313 498.0630187988281 366.6161804199219 499.5836791992188 366.0598449707031 500.9745178222656 C 365.498046875 502.3790283203125 364.6384582519531 503.6967163085938 363.5046997070313 504.8912658691406 C 361.2884216308594 507.2848205566406 358.359619140625 508.4982299804688 354.7991333007813 508.4982299804688 Z M 354.7991333007813 488.9771728515625 C 352.7764282226563 488.9771728515625 351.0960083007813 489.6983947753906 349.661865234375 491.1820068359375 C 348.1995849609375 492.6947326660156 347.4887390136719 494.4559936523438 347.4887390136719 496.5664367675781 C 347.4887390136719 497.8812561035156 347.8234558105469 499.1659240722656 348.4835815429688 500.3847351074219 C 349.1084899902344 501.5386962890625 349.9669799804688 502.4131469726563 351.1081848144531 503.0581359863281 C 352.2310180664063 503.6927795410156 353.4038391113281 503.9883728027344 354.7991333007813 503.9883728027344 C 356.1753234863281 503.9883728027344 357.3827209472656 503.68408203125 358.4902648925781 503.0581359863281 C 359.63134765625 502.4131164550781 360.4898376464844 501.5386657714844 361.1147155761719 500.384765625 C 361.7841491699219 499.14892578125 362.1095581054688 497.8999633789063 362.1095581054688 496.5664367675781 C 362.1095581054688 494.4881286621094 361.38037109375 492.6785888671875 359.9422607421875 491.18798828125 C 358.4520568847656 489.7002868652344 356.7696838378906 488.9771728515625 354.7991333007813 488.9771728515625 Z"/></g><g class="b" transform="translate(-211.8 -471.219)"><path class="c" d="M 222.8991088867188 502.1162109375 C 219.5358123779297 502.1162109375 216.7303314208984 500.9566345214844 214.5606231689453 498.669677734375 C 212.4557952880859 496.4510803222656 211.3587799072266 493.7489013671875 211.300048828125 490.6381225585938 L 211.2999572753906 490.6334228515625 L 211.2999572753906 490.6286926269531 L 211.2999572753906 490.5729675292969 L 211.2999572753906 472.0000305175781 L 211.2999572753906 471.5000305175781 L 211.7999572753906 471.5000305175781 L 214.5887145996094 471.5000305175781 L 215.0887145996094 471.5000305175781 L 215.0887145996094 472.0000305175781 L 215.0887145996094 481.9338073730469 C 217.2154541015625 479.9317626953125 219.8382110595703 478.9180297851563 222.8991088867188 478.9180297851563 C 224.6008911132813 478.9180297851563 226.1783294677734 479.2274169921875 227.5876007080078 479.8376159667969 C 228.9900054931641 480.44482421875 230.2755584716797 481.3713989257813 231.4085693359375 482.5915832519531 L 231.4114532470703 482.5946960449219 L 231.4142761230469 482.5978393554688 C 233.4894561767578 484.9101867675781 234.4982299804688 487.5188598632813 234.4982299804688 490.5729675292969 C 234.4982299804688 493.7106018066406 233.4324035644531 496.3583068847656 231.2397918701172 498.6673583984375 C 229.1217193603516 500.9559631347656 226.3156433105469 502.1162109375 222.8991088867188 502.1162109375 Z M 222.8991088867188 482.5951843261719 C 220.7337188720703 482.5951843261719 218.9356994628906 483.3663024902344 217.4022979736328 484.9526062011719 C 215.8454895019531 486.5630187988281 215.0887145996094 488.4379272460938 215.0887145996094 490.6844787597656 C 215.0887145996094 492.0836791992188 215.4437103271484 493.4484558105469 216.1438598632813 494.7409057617188 C 216.8149719238281 495.9798889160156 217.73681640625 496.9188232421875 218.9620819091797 497.6114501953125 C 220.1630706787109 498.2902221679688 221.4140930175781 498.6063842773438 222.8991088867188 498.6063842773438 C 224.3637390136719 498.6063842773438 225.6515502929688 498.2809448242188 226.8361663818359 497.6114501953125 C 228.0614013671875 496.9188232421875 228.9832611083984 495.9798583984375 229.6543426513672 494.7409362792969 C 230.3643646240234 493.4302368164063 230.7095031738281 492.1033630371094 230.7095031738281 490.6844787597656 C 230.7095031738281 488.4706115722656 229.9322357177734 486.5433349609375 228.3991088867188 484.9559020996094 C 226.8094024658203 483.3673095703125 225.0103759765625 482.5951843261719 222.8991088867188 482.5951843261719 Z"/><path class="d" d="M 222.8991088867188 501.6162109375 C 226.1340484619141 501.6162109375 228.8112030029297 500.5564880371094 230.8748626708984 498.3255310058594 C 232.9942932128906 496.0946350097656 233.9982299804688 493.5289611816406 233.9982299804688 490.5729675292969 C 233.9982299804688 487.6169128417969 232.9942932128906 485.1070251464844 231.0421600341797 482.9317932128906 C 228.8669586181641 480.5892333984375 226.1897735595703 479.4180297851563 222.8991088867188 479.4180297851563 C 219.6084136962891 479.4180297851563 216.8754272460938 480.6450500488281 214.7560577392578 482.9875183105469 C 214.7002410888672 483.0433654785156 214.6444854736328 483.0991516113281 214.5887145996094 483.1549072265625 L 214.5887145996094 472.0000305175781 L 211.7999572753906 472.0000305175781 L 211.7999572753906 490.5729675292969 L 211.7999572753906 490.6286926269531 C 211.8557586669922 493.5846557617188 212.8596954345703 496.1503601074219 214.9233551025391 498.3255310058594 C 216.9870300292969 500.500732421875 219.6641845703125 501.6162109375 222.8991088867188 501.6162109375 M 222.8991088867188 482.0951843261719 C 225.1300659179688 482.0951843261719 227.0821685791016 482.9318542480469 228.7554016113281 484.6051025390625 C 230.3729095458984 486.2782897949219 231.2095031738281 488.3419189453125 231.2095031738281 490.6844787597656 C 231.2095031738281 492.2461242675781 230.819091796875 493.6405334472656 230.093994140625 494.9790649414063 C 229.3689270019531 496.3176574707031 228.3650054931641 497.3215637207031 227.0821685791016 498.0467224121094 C 225.7993621826172 498.771728515625 224.4049835205078 499.1063842773438 222.8991088867188 499.1063842773438 C 221.3374328613281 499.1063842773438 219.9987945556641 498.771728515625 218.7160339355469 498.0467224121094 C 217.4332122802734 497.3215637207031 216.4293060302734 496.3176574707031 215.7042236328125 494.9790649414063 C 214.9791259765625 493.6405334472656 214.5887145996094 492.1903686523438 214.5887145996094 490.6844787597656 C 214.5887145996094 488.2861328125 215.4253082275391 486.2782897949219 217.0428009033203 484.6051025390625 C 218.6602478027344 482.9318542480469 220.6123352050781 482.0951843261719 222.8991088867188 482.0951843261719 M 222.8991088867188 502.6162109375 C 219.3932495117188 502.6162109375 216.4657287597656 501.4041748046875 214.1978912353516 499.0137939453125 C 212.0044708251953 496.7018432617188 210.8612976074219 493.8870239257813 210.8001403808594 490.6475830078125 L 210.7999572753906 490.6381225585938 L 210.7999572753906 490.6286926269531 L 210.7999572753906 490.5729675292969 L 210.7999572753906 472.0000305175781 L 210.7999572753906 471.0000305175781 L 211.7999572753906 471.0000305175781 L 214.5887145996094 471.0000305175781 L 215.5887145996094 471.0000305175781 L 215.5887145996094 472.0000305175781 L 215.5887145996094 480.8444519042969 C 217.6470794677734 479.2327270507813 220.0973663330078 478.4180297851563 222.8991088867188 478.4180297851563 C 224.6696319580078 478.4180297851563 226.3139190673828 478.7412719726563 227.7862701416016 479.3787841796875 C 229.2525787353516 480.013671875 230.5945587158203 480.9801330566406 231.7749633789063 482.2513427734375 L 231.7807312011719 482.257568359375 L 231.7864074707031 482.2638854980469 C 232.8457183837891 483.4442443847656 233.6523284912109 484.7336120605469 234.1838684082031 486.0961303710938 C 234.7242431640625 487.4813232421875 234.9982299804688 488.987548828125 234.9982299804688 490.5729675292969 C 234.9982299804688 492.1810913085938 234.7161407470703 493.7017211914063 234.1598205566406 495.0925598144531 C 233.5979614257813 496.4971923828125 232.7382354736328 497.8149719238281 231.6043090820313 499.0096130371094 C 229.3880462646484 501.4028930664063 226.4593505859375 502.6162109375 222.8991088867188 502.6162109375 Z M 222.8991088867188 483.0951843261719 C 220.8764343261719 483.0951843261719 219.1959991455078 483.8164367675781 217.7618103027344 485.3001098632813 C 216.2995300292969 486.8127136230469 215.5887145996094 488.5739440917969 215.5887145996094 490.6844787597656 C 215.5887145996094 491.9995727539063 215.9234008789063 493.2842407226563 216.58349609375 494.5027465820313 C 217.2085571289063 495.6566772460938 218.0670776367188 496.5311584472656 219.2081298828125 497.1761779785156 C 220.3309631347656 497.810791015625 221.5038299560547 498.1063842773438 222.8991088867188 498.1063842773438 C 224.2752380371094 498.1063842773438 225.4825897216797 497.8020935058594 226.5901489257813 497.1761474609375 C 227.7311553955078 496.5311584472656 228.5896759033203 495.6566772460938 229.2147064208984 494.5027770996094 C 229.8841094970703 493.2670593261719 230.2095031738281 492.0180969238281 230.2095031738281 490.6844787597656 C 230.2095031738281 488.6060485839844 229.4803314208984 486.7965698242188 228.042236328125 485.30615234375 C 226.5519104003906 483.8183898925781 224.8695220947266 483.0951843261719 222.8991088867188 483.0951843261719 Z"/></g></g></g></svg>