<svg xmlns="http://www.w3.org/2000/svg" xmlns:xlink="http://www.w3.org/1999/xlink" viewBox="-1275.418 929.218 2086.205 355.782"><defs><style>.a,.b{fill:none;stroke-width:3px;}.a{stroke:#e5ebef;}.b{stroke:#ff8314;}.c{fill:#4ba9ff;}.d{filter:url(#q);}.e{filter:url(#o);}.f{filter:url(#m);}.g{filter:url(#k);}.h{filter:url(#i);}.i{filter:url(#g);}.j{filter:url(#e);}.k{filter:url(#c);}.l{filter:url(#a);}</style><filter id="a" x="-1189.583" y="1227.994" width="57.006" height="57.006" filterUnits="userSpaceOnUse"><feOffset dy="4" input="SourceAlpha"/><feGaussianBlur stdDeviation="5" result="b"/><feFlood flood-color="#4ba9ff"/><feComposite operator="in" in2="b"/><feComposite in="SourceGraphic"/></filter><filter id="c" x="-853.94" y="1002.304" width="57.006" height="57.006" filterUnits="userSpaceOnUse"><feOffset dy="4" input="SourceAlpha"/><feGaussianBlur stdDeviation="5" result="d"/><feFlood flood-color="#4ba9ff"/><feComposite operator="in" in2="d"/><feComposite in="SourceGraphic"/></filter><filter id="e" x="-1020.94" y="1109.304" width="57.006" height="57.006" filterUnits="userSpaceOnUse"><feOffset dy="4" input="SourceAlpha"/><feGaussianBlur stdDeviation="5" result="f"/><feFlood flood-color="#4ba9ff"/><feComposite operator="in" in2="f"/><feComposite in="SourceGraphic"/></filter><filter id="g" x="-684.19" y="1175.913" width="57.006" height="57.006" filterUnits="userSpaceOnUse"><feOffset dy="4" input="SourceAlpha"/><feGaussianBlur stdDeviation="5" result="h"/><feFlood flood-color="#4ba9ff"/><feComposite operator="in" in2="h"/><feComposite in="SourceGraphic"/></filter><filter id="i" x="-377.484" y="1112.256" width="57.006" height="57.006" filterUnits="userSpaceOnUse"><feOffset dy="4" input="SourceAlpha"/><feGaussianBlur stdDeviation="5" result="j"/><feFlood flood-color="#4ba9ff"/><feComposite operator="in" in2="j"/><feComposite in="SourceGraphic"/></filter><filter id="k" x="-72.704" y="1048.6" width="57.006" height="57.006" filterUnits="userSpaceOnUse"><feOffset dy="4" input="SourceAlpha"/><feGaussianBlur stdDeviation="5" result="l"/><feFlood flood-color="#4ba9ff"/><feComposite operator="in" in2="l"/><feComposite in="SourceGraphic"/></filter><filter id="m" x="162.631" y="969.512" width="57.006" height="57.006" filterUnits="userSpaceOnUse"><feOffset dy="4" input="SourceAlpha"/><feGaussianBlur stdDeviation="5" result="n"/><feFlood flood-color="#4ba9ff"/><feComposite operator="in" in2="n"/><feComposite in="SourceGraphic"/></filter><filter id="o" x="338.168" y="1127.688" width="57.006" height="57.006" filterUnits="userSpaceOnUse"><feOffset dy="4" input="SourceAlpha"/><feGaussianBlur stdDeviation="5" result="p"/><feFlood flood-color="#4ba9ff"/><feComposite operator="in" in2="p"/><feComposite in="SourceGraphic"/></filter><filter id="q" x="502.131" y="1040.884" width="57.006" height="57.006" filterUnits="userSpaceOnUse"><feOffset dy="4" input="SourceAlpha"/><feGaussianBlur stdDeviation="5" result="r"/><feFlood flood-color="#4ba9ff"/><feComposite operator="in" in2="r"/><feComposite in="SourceGraphic"/></filter></defs><g transform="translate(-10485.427 -7069.441)"><path class="a" d="M9211.5,8215.775s9.032,71.957,88.766,86.019,173.165-87.412,238.959-162.794c18.688-21.409,35.647-37.918,53.086-48.042,42.542-24.7,85.946-7.544,158.581,79.278,101.445,121.257,183.03,215.537,360.317,45.539s196.515-172.288,270.479-108.733,129.974,32.519,223.475-21.944,106.424-19.566,151.66,45.162,96.972,141.127,241.822,0,262.04-129.831,262.04-129.831" transform="translate(35.387 21.22)"/><path class="b" d="M9211.5,8230.629s9.071,76.915,89.173,91.944,173.967-93.434,240.06-174.011c18.773-22.883,35.814-40.531,53.332-51.351,42.735-26.4,86.341-8.064,159.313,84.739,101.914,129.613,183.868,230.39,361.974,48.678s197.423-184.16,271.727-116.226,130.572,34.76,224.5-23.456,106.914-20.918,152.362,48.274,97.417,150.852,242.931,0,263.251-138.775,263.251-138.775" transform="translate(0 -0.001)"/><g class="l" transform="matrix(1, 0, 0, 1, 10485.43, 7069.44)"><circle class="c" cx="13.503" cy="13.503" r="13.503" transform="translate(-1174.58 1238.99)"/></g><g class="k" transform="matrix(1, 0, 0, 1, 10485.43, 7069.44)"><circle class="c" cx="13.503" cy="13.503" r="13.503" transform="translate(-838.94 1013.3)"/></g><g class="j" transform="matrix(1, 0, 0, 1, 10485.43, 7069.44)"><circle class="c" cx="13.503" cy="13.503" r="13.503" transform="translate(-1005.94 1120.3)"/></g><g class="i" transform="matrix(1, 0, 0, 1, 10485.43, 7069.44)"><circle class="c" cx="13.503" cy="13.503" r="13.503" transform="translate(-669.19 1186.91)"/></g><g class="h" transform="matrix(1, 0, 0, 1, 10485.43, 7069.44)"><circle class="c" cx="13.503" cy="13.503" r="13.503" transform="translate(-362.48 1123.26)"/></g><g class="g" transform="matrix(1, 0, 0, 1, 10485.43, 7069.44)"><circle class="c" cx="13.503" cy="13.503" r="13.503" transform="translate(-57.7 1059.6)"/></g><g class="f" transform="matrix(1, 0, 0, 1, 10485.43, 7069.44)"><circle class="c" cx="13.503" cy="13.503" r="13.503" transform="translate(177.63 980.51)"/></g><g class="e" transform="matrix(1, 0, 0, 1, 10485.43, 7069.44)"><circle class="c" cx="13.503" cy="13.503" r="13.503" transform="translate(353.17 1138.69)"/></g><g class="d" transform="matrix(1, 0, 0, 1, 10485.43, 7069.44)"><circle class="c" cx="13.503" cy="13.503" r="13.503" transform="translate(517.13 1051.88)"/></g></g></svg>