<svg xmlns="http://www.w3.org/2000/svg" viewBox="619.536 6685 23.687 15.227">
  <defs>
    <style>
      .cls-1 {
        opacity: 0.302;
      }

      .cls-2 {
        fill: #29475b;
      }
    </style>
  </defs>
  <g id="Group_268" data-name="Group 268" class="cls-1" transform="translate(-791 5654)">
    <path id="Path_507" data-name="Path 507" class="cls-2" d="M23.422,98.067A14.117,14.117,0,0,0,18.446,93.2a12.781,12.781,0,0,0-13.2,0A14.114,14.114,0,0,0,.264,98.067a1.706,1.706,0,0,0,0,1.824,14.111,14.111,0,0,0,4.977,4.864,12.8,12.8,0,0,0,13.2.007,14.023,14.023,0,0,0,4.977-4.871,1.706,1.706,0,0,0,0-1.824ZM9.008,94.451a3.868,3.868,0,0,1,2.835-1.183.634.634,0,1,1,0,1.269,2.753,2.753,0,0,0-2.749,2.749.635.635,0,1,1-1.269,0A3.868,3.868,0,0,1,9.008,94.451Zm8.579,8.843a11.073,11.073,0,0,1-11.486,0,13.643,13.643,0,0,1-4.408-4.316,12.991,12.991,0,0,1,5.036-4.666,5.776,5.776,0,0,0-.806,2.974A5.7,5.7,0,0,0,7.66,101.47a5.7,5.7,0,0,0,4.183,1.738,5.7,5.7,0,0,0,4.183-1.738,5.7,5.7,0,0,0,1.738-4.183,5.776,5.776,0,0,0-.806-2.974,12.992,12.992,0,0,1,5.036,4.666A13.639,13.639,0,0,1,17.587,103.294Z" transform="translate(1410.536 939.635)"/>
  </g>
</svg>
