<svg xmlns="http://www.w3.org/2000/svg" viewBox="-16.011 6766.189 21.318 21.349">
  <defs>
    <style>
      .cls-1 {
        opacity: 0.359;
      }

      .cls-2 {
        fill: #7e909c;
        stroke: #7e909c;
      }
    </style>
  </defs>
  <g id="Group_219" data-name="Group 219" class="cls-1" transform="translate(-1641.512 6088.768)">
    <path id="Path_446" data-name="Path 446" class="cls-2" d="M16.41,38.833a2,2,0,0,0-1.451-.666,2.069,2.069,0,0,0-1.469.661l-1.357,1.353c-.112-.06-.223-.116-.331-.172-.155-.077-.3-.15-.425-.228a14.749,14.749,0,0,1-3.534-3.221,8.7,8.7,0,0,1-1.159-1.829c.352-.322.679-.657,1-.979.12-.12.24-.245.361-.365a1.97,1.97,0,0,0,0-2.972L6.868,29.244c-.133-.133-.271-.271-.4-.408-.258-.266-.528-.541-.807-.8a2.033,2.033,0,0,0-1.439-.631,2.1,2.1,0,0,0-1.46.631l-.009.009-1.46,1.473a3.142,3.142,0,0,0-.932,2A7.528,7.528,0,0,0,.912,34.7,18.49,18.49,0,0,0,4.2,40.182a20.208,20.208,0,0,0,6.729,5.269,10.484,10.484,0,0,0,3.779,1.117c.09,0,.185.009.271.009a3.236,3.236,0,0,0,2.478-1.065c0-.009.013-.013.017-.021a9.763,9.763,0,0,1,.752-.777c.185-.176.374-.361.558-.554a2.142,2.142,0,0,0,.648-1.486,2.064,2.064,0,0,0-.661-1.473Zm1.537,4.522s0,0,0,0c-.167.18-.339.344-.524.524a11.291,11.291,0,0,0-.829.859,2.07,2.07,0,0,1-1.615.683c-.064,0-.133,0-.2,0a9.314,9.314,0,0,1-3.35-1,19.076,19.076,0,0,1-6.338-4.964A17.434,17.434,0,0,1,2,34.3a6.131,6.131,0,0,1-.481-2.688,1.971,1.971,0,0,1,.593-1.275L3.579,28.87a.976.976,0,0,1,.653-.3.919.919,0,0,1,.627.3l.013.013c.262.245.511.5.773.769.133.137.271.275.408.417l1.172,1.172a.82.82,0,0,1,0,1.331c-.125.125-.245.249-.369.369-.361.369-.7.713-1.078,1.048-.009.009-.017.013-.021.021a.876.876,0,0,0-.223.975l.013.039a9.412,9.412,0,0,0,1.387,2.263l0,0a15.762,15.762,0,0,0,3.813,3.47,5.863,5.863,0,0,0,.528.288c.155.077.3.15.425.228.017.009.034.021.052.03a.931.931,0,0,0,.425.107.918.918,0,0,0,.653-.3L14.3,39.645a.972.972,0,0,1,.648-.322.875.875,0,0,1,.618.313l.009.009,2.366,2.366A.849.849,0,0,1,17.947,43.355Z" transform="translate(1625.656 651.694)"/>
    <path id="Path_447" data-name="Path 447" class="cls-2" d="M245.421,87.075a5.527,5.527,0,0,1,4.5,4.5.576.576,0,0,0,.571.481.765.765,0,0,0,.1-.009.58.58,0,0,0,.477-.67,6.683,6.683,0,0,0-5.445-5.445.583.583,0,0,0-.67.472A.573.573,0,0,0,245.421,87.075Z" transform="translate(1391.56 595.688)"/>
    <path id="Path_448" data-name="Path 448" class="cls-2" d="M258.415,8.976A11,11,0,0,0,249.449.009a.579.579,0,1,0-.189,1.142,9.829,9.829,0,0,1,8.013,8.013.576.576,0,0,0,.571.481.767.767,0,0,0,.1-.009A.569.569,0,0,0,258.415,8.976Z" transform="translate(1387.893 677.923)"/>
  </g>
</svg>
