<svg xmlns="http://www.w3.org/2000/svg" viewBox="-623 448.803 174.001 77.142">
  <defs>
    <style>
      .cls-1 {
        fill: #4ba9ff;
      }

      .cls-2, .cls-4 {
        fill: #29475b;
      }

      .cls-3, .cls-4 {
        stroke: none;
      }
    </style>
  </defs>
  <g id="Group_206" data-name="Group 206" transform="translate(-1003 329)">
    <path id="Subtraction_20" data-name="Subtraction 20" class="cls-1" d="M30.44,77.142h0a11.837,11.837,0,0,1-2.662-.342c-.885-.5-21.7-12.318-24.753-14.219A7.072,7.072,0,0,1,1.24,61.025a5.822,5.822,0,0,1-.894-1.531A4.625,4.625,0,0,1,0,57.861c0-.449.074-44.979,0-48.206a6.992,6.992,0,0,1,.257-2.1A5.641,5.641,0,0,1,.9,6.117,4.106,4.106,0,0,1,1.85,5.029c.068-.042,6.843-4.217,8.565-4.9A1.756,1.756,0,0,1,11.054,0,1.192,1.192,0,0,1,11.8.256a1.806,1.806,0,0,1,.462.564,3.015,3.015,0,0,1,.3.82V18.657l.065-.038c2.161-1.239,13.044-7.472,15.083-8.467a5.05,5.05,0,0,1,2.235-.488,7.025,7.025,0,0,1,2.529.488c.205.117,20.645,11.81,24.317,14.1a8.907,8.907,0,0,1,2.1,1.766,5.642,5.642,0,0,1,.974,1.609,3.55,3.55,0,0,1,.268,1.624c0,.258.156,25.818,0,28.459a5.428,5.428,0,0,1-.446,1.83,6.977,6.977,0,0,1-.828,1.414,7.337,7.337,0,0,1-1.155,1.234c-.235.138-23.534,13.852-25.275,14.611A5.026,5.026,0,0,1,30.44,77.142Zm-17.761-41.9c0,.561-.041,13.757-.033,15.7a3.3,3.3,0,0,0,.282,1.319,3.941,3.941,0,0,0,.611.966,4.305,4.305,0,0,0,.887.8l13.728,8.02-.089-18.006Zm34.733,0-15.549,9.08.075,17.721c.088-.05,11.885-6.814,13.613-7.821a3.3,3.3,0,0,0,1-.9,3.923,3.923,0,0,0,.531-1.012,4.254,4.254,0,0,0,.246-1.166ZM30.144,24.147a4.385,4.385,0,0,0-1.87.438l-13.81,7.879L30.1,41.39l15.309-8.926c-.087-.051-11.858-6.894-13.579-7.879A3.355,3.355,0,0,0,30.144,24.147Z" transform="translate(380 119.803)"/>
    <g id="Group_205" data-name="Group 205" transform="translate(460.031 147.556)">
      <g id="Path_37" data-name="Path 37" class="cls-2" transform="translate(-232.572 -470.6)">
        <path class="cls-3" d="M 261.1195373535156 500.1766967773438 L 260.6195373535156 500.1766967773438 L 257.9664001464844 500.1766967773438 L 257.4664001464844 500.1766967773438 L 257.4664001464844 499.6766967773438 L 257.4664001464844 479.1010131835938 L 257.4664001464844 478.6010131835938 L 257.9664001464844 478.6010131835938 L 260.6195373535156 478.6010131835938 L 261.1195373535156 478.6010131835938 L 261.1195373535156 479.1010131835938 L 261.1195373535156 499.6766967773438 L 261.1195373535156 500.1766967773438 Z M 259.2659301757813 475.4859313964844 C 258.543701171875 475.4859313964844 257.9320983886719 475.2254943847656 257.3962097167969 474.6897277832031 C 256.8604125976563 474.1538391113281 256.5999755859375 473.5422973632813 256.5999755859375 472.8200378417969 C 256.5999755859375 472.0823974609375 256.8752746582031 471.4171447753906 257.3961486816406 470.896240234375 C 257.9319763183594 470.3604125976563 258.5435791015625 470.0999755859375 259.2659301757813 470.0999755859375 C 260.0172424316406 470.0999755859375 260.6846008300781 470.38671875 261.1471557617188 470.9078674316406 C 261.6604614257813 471.427001953125 261.9317016601563 472.0878601074219 261.9317016601563 472.8200378417969 C 261.9317016601563 473.5713500976563 261.6449890136719 474.2387084960938 261.1239318847656 474.7012634277344 C 260.5908508300781 475.229248046875 259.9829406738281 475.4859313964844 259.2659301757813 475.4859313964844 Z"/>
        <path class="cls-4" d="M 260.6195373535156 499.6766967773438 L 260.6195373535156 479.1010131835938 L 257.9664001464844 479.1010131835938 L 257.9664001464844 499.6766967773438 L 260.6195373535156 499.6766967773438 M 259.2659301757813 474.9859313964844 C 259.8614501953125 474.9859313964844 260.3488464355469 474.7692260742188 260.7820129394531 474.3361206054688 C 261.2151794433594 473.9570922851563 261.4317016601563 473.4156494140625 261.4317016601563 472.8200378417969 C 261.4317016601563 472.2243957519531 261.2151184082031 471.6829223632813 260.7820129394531 471.249755859375 C 260.4030151367188 470.8165893554688 259.8614501953125 470.5999755859375 259.2659301757813 470.5999755859375 C 258.6702880859375 470.5999755859375 258.1829223632813 470.8165893554688 257.7497253417969 471.249755859375 C 257.3166198730469 471.6829223632813 257.0999755859375 472.2243957519531 257.0999755859375 472.8200378417969 C 257.0999755859375 473.4155578613281 257.3166198730469 473.9029541015625 257.7497253417969 474.3361206054688 C 258.1829223632813 474.7692260742188 258.6702880859375 474.9859313964844 259.2659301757813 474.9859313964844 M 261.6195373535156 500.6766967773438 L 260.6195373535156 500.6766967773438 L 257.9664001464844 500.6766967773438 L 256.9664001464844 500.6766967773438 L 256.9664001464844 499.6766967773438 L 256.9664001464844 479.1010131835938 L 256.9664001464844 478.1010131835938 L 257.9664001464844 478.1010131835938 L 260.6195373535156 478.1010131835938 L 261.6195373535156 478.1010131835938 L 261.6195373535156 479.1010131835938 L 261.6195373535156 499.6766967773438 L 261.6195373535156 500.6766967773438 Z M 259.2659301757813 475.9859313964844 C 258.4163208007813 475.9859313964844 257.6683044433594 475.6687927246094 257.0426940917969 475.0433044433594 C 256.4171142578125 474.4176330566406 256.0999755859375 473.669677734375 256.0999755859375 472.8200378417969 C 256.0999755859375 471.9469299316406 256.4259338378906 471.159423828125 257.0425720214844 470.5426940917969 C 257.6681823730469 469.9171447753906 258.4161987304688 469.5999755859375 259.2659301757813 469.5999755859375 C 260.1575317382813 469.5999755859375 260.9537353515625 469.9426574707031 261.5120544433594 470.5657958984375 C 262.1138305664063 471.1790161132813 262.4317016601563 471.957763671875 262.4317016601563 472.8200378417969 C 262.4317016601563 473.7115173339844 262.0891723632813 474.5076293945313 261.4662780761719 475.0658874511719 C 260.8453369140625 475.6763916015625 260.1051940917969 475.9859313964844 259.2659301757813 475.9859313964844 Z"/>
      </g>
      <g id="Path_38" data-name="Path 38" class="cls-2" transform="translate(-239.083 -471.288)">
        <path class="cls-3" d="M 278.0268859863281 500.8645629882813 L 277.5268859863281 500.8645629882813 L 274.8736877441406 500.8645629882813 L 274.3736877441406 500.8645629882813 L 274.3736877441406 500.3645629882813 L 274.3736877441406 482.5630493164063 L 271.300048828125 482.5630493164063 L 270.800048828125 482.5630493164063 L 270.800048828125 482.0630493164063 L 270.800048828125 479.7888793945313 L 270.800048828125 479.2888793945313 L 271.300048828125 479.2888793945313 L 274.3736877441406 479.2888793945313 L 274.3736877441406 472.1000366210938 L 274.3736877441406 471.6000366210938 L 274.8736877441406 471.6000366210938 L 277.5268859863281 471.6000366210938 L 278.0268859863281 471.6000366210938 L 278.0268859863281 472.1000366210938 L 278.0268859863281 479.2888793945313 L 281.6961975097656 479.2888793945313 L 282.1961975097656 479.2888793945313 L 282.1961975097656 479.7888793945313 L 282.1961975097656 482.0630493164063 L 282.1961975097656 482.5630493164063 L 281.6961975097656 482.5630493164063 L 278.0268859863281 482.5630493164063 L 278.0268859863281 500.3645629882813 L 278.0268859863281 500.8645629882813 Z"/>
        <path class="cls-4" d="M 277.5268859863281 500.3645629882813 L 277.5268859863281 482.0630493164063 L 281.6961975097656 482.0630493164063 L 281.6961975097656 479.7888793945313 L 277.5268859863281 479.7888793945313 L 277.5268859863281 472.1000366210938 L 274.8736877441406 472.1000366210938 L 274.8736877441406 479.7888793945313 L 271.300048828125 479.7888793945313 L 271.300048828125 482.0630493164063 L 274.8736877441406 482.0630493164063 L 274.8736877441406 500.3645629882813 L 277.5268859863281 500.3645629882813 M 278.5268859863281 501.3645629882813 L 277.5268859863281 501.3645629882813 L 274.8736877441406 501.3645629882813 L 273.8736877441406 501.3645629882813 L 273.8736877441406 500.3645629882813 L 273.8736877441406 483.0630493164063 L 271.300048828125 483.0630493164063 L 270.300048828125 483.0630493164063 L 270.300048828125 482.0630493164063 L 270.300048828125 479.7888793945313 L 270.300048828125 478.7888793945313 L 271.300048828125 478.7888793945313 L 273.8736877441406 478.7888793945313 L 273.8736877441406 472.1000366210938 L 273.8736877441406 471.1000366210938 L 274.8736877441406 471.1000366210938 L 277.5268859863281 471.1000366210938 L 278.5268859863281 471.1000366210938 L 278.5268859863281 472.1000366210938 L 278.5268859863281 478.7888793945313 L 281.6961975097656 478.7888793945313 L 282.6961975097656 478.7888793945313 L 282.6961975097656 479.7888793945313 L 282.6961975097656 482.0630493164063 L 282.6961975097656 483.0630493164063 L 281.6961975097656 483.0630493164063 L 278.5268859863281 483.0630493164063 L 278.5268859863281 500.3645629882813 L 278.5268859863281 501.3645629882813 Z"/>
      </g>
      <g id="Path_39" data-name="Path 39" class="cls-2" transform="translate(-248.024 -477.799)">
        <path class="cls-3" d="M 298.8136596679688 507.3756713867188 L 298.6512145996094 507.3756713867188 L 290.7999877929688 507.3756713867188 L 290.2999877929688 507.3756713867188 L 290.2999877929688 506.8756713867188 L 290.2999877929688 504.4931640625 L 290.2999877929688 503.9931640625 L 290.7999877929688 503.9931640625 L 291.1248779296875 503.9931640625 L 298.6512145996094 503.9931640625 L 298.7053527832031 503.9931640625 C 299.6246337890625 503.9931640625 300.426025390625 503.7057800292969 301.0872802734375 503.1389465332031 C 301.7349853515625 502.5838317871094 302.0498046875 501.9641418457031 302.0498046875 501.2444458007813 C 302.0498046875 500.63720703125 301.8379211425781 500.0939025878906 301.4200744628906 499.6295776367188 L 301.4122009277344 499.6208190917969 L 301.4047241210938 499.6116943359375 C 300.9786682128906 499.0909423828125 299.9080200195313 498.42626953125 298.2224426269531 497.6361389160156 L 298.2167053222656 497.6334533691406 L 298.2110595703125 497.630615234375 C 296.278076171875 496.6641540527344 294.9455261230469 495.7063903808594 294.250244140625 494.7838134765625 C 293.497314453125 493.853759765625 293.1156005859375 492.7301330566406 293.1156005859375 491.4439086914063 C 293.1156005859375 489.8230895996094 293.7178039550781 488.4592590332031 294.905517578125 487.3902587890625 C 296.0780639648438 486.3349914550781 297.5569152832031 485.7999267578125 299.3009948730469 485.7999267578125 L 304.9863891601563 485.7999267578125 L 305.4863891601563 485.7999267578125 L 305.4863891601563 486.2999267578125 L 305.4863891601563 488.5741577148438 L 305.4863891601563 489.0741577148438 L 304.9863891601563 489.0741577148438 L 299.301025390625 489.0741577148438 L 299.1927490234375 489.0741577148438 C 298.4407653808594 489.0741577148438 297.8069763183594 489.3036804199219 297.3090515136719 489.7563171386719 C 296.8068542480469 490.212890625 296.5522155761719 490.7260437011719 296.5522155761719 491.281494140625 C 296.5522155761719 491.7835693359375 296.7571716308594 492.2679443359375 297.1972351074219 492.8058471679688 C 297.7021484375 493.4229125976563 299.0823974609375 494.1597900390625 300.2284545898438 494.7328491210938 C 302.3463745117188 495.7916870117188 303.6747436523438 496.7319641113281 304.4089050292969 497.6919250488281 C 305.1598205566406 498.6738891601563 305.54052734375 499.8144836425781 305.54052734375 501.08203125 C 305.54052734375 502.8229064941406 304.8872680664063 504.3291320800781 303.598876953125 505.5587768554688 C 302.3180847167969 506.7813415527344 300.7528381347656 507.3756713867188 298.8136596679688 507.3756713867188 Z"/>
        <path class="cls-4" d="M 298.8136596679688 506.8756713867188 C 300.6005249023438 506.8756713867188 302.0624389648438 506.3341674804688 303.253662109375 505.1970825195313 C 304.4449157714844 504.0601196289063 305.04052734375 502.7064208984375 305.04052734375 501.08203125 C 305.04052734375 499.9449462890625 304.7156066894531 498.9161376953125 304.0117492675781 497.9956665039063 C 303.3078002929688 497.0751953125 301.9541625976563 496.1546020507813 300.0048522949219 495.1800537109375 C 298.3804931640625 494.3678588867188 297.2975769042969 493.718017578125 296.8102416992188 493.1224365234375 C 296.3229370117188 492.5267944335938 296.0522155761719 491.9312133789063 296.0522155761719 491.281494140625 C 296.0522155761719 490.57763671875 296.3770751953125 489.9278564453125 296.9727172851563 489.3863525390625 C 297.5683288574219 488.8449096679688 298.3263549804688 488.5741577148438 299.1927490234375 488.5741577148438 C 299.2468872070313 488.5741577148438 299.301025390625 488.5741577148438 299.301025390625 488.5741577148438 L 304.9863891601563 488.5741577148438 L 304.9863891601563 486.2999267578125 L 299.3009948730469 486.2999267578125 C 297.6766052246094 486.2999267578125 296.3229370117188 486.7872924804688 295.2400207519531 487.7619018554688 C 294.1571044921875 488.736572265625 293.6156005859375 489.9819946289063 293.6156005859375 491.4439086914063 C 293.6156005859375 492.5809936523438 293.9404907226563 493.6098022460938 294.6444396972656 494.47607421875 C 295.2941589355469 495.3424682617188 296.5936889648438 496.262939453125 298.4346618652344 497.1834106445313 C 300.1673278808594 497.99560546875 301.3044128417969 498.699462890625 301.7917175292969 499.2951049804688 C 302.279052734375 499.8366088867188 302.5498046875 500.4863891601563 302.5498046875 501.2444458007813 C 302.5498046875 502.1106567382813 302.1707763671875 502.8688354492188 301.4126892089844 503.5185546875 C 300.6546630859375 504.1683349609375 299.734130859375 504.4931640625 298.7053527832031 504.4931640625 L 298.6512145996094 504.4931640625 L 291.1248779296875 504.4931640625 L 290.7999877929688 504.4931640625 L 290.7999877929688 506.8756713867188 L 298.6512145996094 506.8756713867188 C 298.7053527832031 506.8756713867188 298.7595520019531 506.8756713867188 298.8136596679688 506.8756713867188 M 298.8136596679688 507.8756713867188 L 298.6512145996094 507.8756713867188 L 290.7999877929688 507.8756713867188 L 289.7999877929688 507.8756713867188 L 289.7999877929688 506.8756713867188 L 289.7999877929688 504.4931640625 L 289.7999877929688 503.4931640625 L 290.7999877929688 503.4931640625 L 291.1248779296875 503.4931640625 L 298.6512145996094 503.4931640625 L 298.7053527832031 503.4931640625 C 299.5018920898438 503.4931640625 300.1938171386719 503.2462768554688 300.7618713378906 502.7593383789063 C 301.2994689941406 502.298583984375 301.5498046875 501.8172302246094 301.5498046875 501.2444458007813 C 301.5498046875 500.7577514648438 301.3858032226563 500.3389587402344 301.0484313964844 499.9640808105469 L 301.0326538085938 499.9465637207031 L 301.0177307128906 499.9283142089844 C 300.8048095703125 499.6680297851563 300.1309509277344 499.0829772949219 298.0102233886719 498.0888671875 L 297.998779296875 498.08349609375 L 297.9874572753906 498.0778503417969 C 295.9896240234375 497.0789489746094 294.5999145507813 496.074462890625 293.8563232421875 495.0918579101563 C 293.0329895019531 494.0718078613281 292.6156005859375 492.8446350097656 292.6156005859375 491.4439086914063 C 292.6156005859375 489.7002563476563 293.2917785644531 488.1700134277344 294.571044921875 487.0186157226563 C 295.8382263183594 485.878173828125 297.4295959472656 485.2999267578125 299.3009948730469 485.2999267578125 L 304.9863891601563 485.2999267578125 L 305.9863891601563 485.2999267578125 L 305.9863891601563 486.2999267578125 L 305.9863891601563 488.5741577148438 L 305.9863891601563 489.5741577148438 L 304.9863891601563 489.5741577148438 L 299.301025390625 489.5741577148438 L 299.1927490234375 489.5741577148438 C 298.5690307617188 489.5741577148438 298.0484008789063 489.7599182128906 297.6453857421875 490.1263122558594 C 297.2518005371094 490.484130859375 297.0522155761719 490.872802734375 297.0522155761719 491.281494140625 C 297.0522155761719 491.5208129882813 297.1073608398438 491.9063720703125 297.584228515625 492.4892272949219 C 298.0341186523438 493.0390625 299.4364318847656 493.7778015136719 300.4520568847656 494.2856140136719 C 302.6404724121094 495.3796997070313 304.0240173339844 496.3655700683594 304.8060913085938 497.38818359375 C 305.6252136230469 498.4594116210938 306.04052734375 499.7021789550781 306.04052734375 501.08203125 C 306.04052734375 502.9649047851563 305.3351745605469 504.5928039550781 303.944091796875 505.9204711914063 C 302.5849914550781 507.2178344726563 300.8588256835938 507.8756713867188 298.8136596679688 507.8756713867188 Z"/>
      </g>
      <g id="Path_40" data-name="Path 40" class="cls-2" transform="translate(-262.927 -471.288)">
        <path class="cls-3" d="M 330.0809936523438 500.8645629882813 L 329.5809936523438 500.8645629882813 L 326.9278564453125 500.8645629882813 L 326.4278564453125 500.8645629882813 L 326.4278564453125 500.3645629882813 L 326.4278564453125 482.5630493164063 L 323.3000183105469 482.5630493164063 L 322.8000183105469 482.5630493164063 L 322.8000183105469 482.0630493164063 L 322.8000183105469 479.7888793945313 L 322.8000183105469 479.2888793945313 L 323.3000183105469 479.2888793945313 L 326.4278564453125 479.2888793945313 L 326.4278564453125 472.1000366210938 L 326.4278564453125 471.6000366210938 L 326.9278564453125 471.6000366210938 L 329.5809936523438 471.6000366210938 L 330.0809936523438 471.6000366210938 L 330.0809936523438 472.1000366210938 L 330.0809936523438 479.2888793945313 L 333.7503356933594 479.2888793945313 L 334.2503356933594 479.2888793945313 L 334.2503356933594 479.7888793945313 L 334.2503356933594 482.0630493164063 L 334.2503356933594 482.5630493164063 L 333.7503356933594 482.5630493164063 L 330.0809936523438 482.5630493164063 L 330.0809936523438 500.3645629882813 L 330.0809936523438 500.8645629882813 Z"/>
        <path class="cls-4" d="M 329.5809936523438 500.3645629882813 L 329.5809936523438 482.0630493164063 L 333.7503356933594 482.0630493164063 L 333.7503356933594 479.7888793945313 L 329.5809936523438 479.7888793945313 L 329.5809936523438 472.1000366210938 L 326.9278564453125 472.1000366210938 L 326.9278564453125 479.7888793945313 L 323.3000183105469 479.7888793945313 L 323.3000183105469 482.0630493164063 L 326.9278564453125 482.0630493164063 L 326.9278564453125 500.3645629882813 L 329.5809936523438 500.3645629882813 M 330.5809936523438 501.3645629882813 L 329.5809936523438 501.3645629882813 L 326.9278564453125 501.3645629882813 L 325.9278564453125 501.3645629882813 L 325.9278564453125 500.3645629882813 L 325.9278564453125 483.0630493164063 L 323.3000183105469 483.0630493164063 L 322.3000183105469 483.0630493164063 L 322.3000183105469 482.0630493164063 L 322.3000183105469 479.7888793945313 L 322.3000183105469 478.7888793945313 L 323.3000183105469 478.7888793945313 L 325.9278564453125 478.7888793945313 L 325.9278564453125 472.1000366210938 L 325.9278564453125 471.1000366210938 L 326.9278564453125 471.1000366210938 L 329.5809936523438 471.1000366210938 L 330.5809936523438 471.1000366210938 L 330.5809936523438 472.1000366210938 L 330.5809936523438 478.7888793945313 L 333.7503356933594 478.7888793945313 L 334.7503356933594 478.7888793945313 L 334.7503356933594 479.7888793945313 L 334.7503356933594 482.0630493164063 L 334.7503356933594 483.0630493164063 L 333.7503356933594 483.0630493164063 L 330.5809936523438 483.0630493164063 L 330.5809936523438 500.3645629882813 L 330.5809936523438 501.3645629882813 Z"/>
      </g>
      <g id="Path_41" data-name="Path 41" class="cls-2" transform="translate(-272.281 -477.34)">
        <path class="cls-3" d="M 354.4751892089844 507.3503112792969 C 351.2058410644531 507.3503112792969 348.4786987304688 506.2230529785156 346.3695678710938 503.9998779296875 L 346.3674011230469 503.99755859375 L 346.365234375 503.9952392578125 C 344.2649536132813 501.7246704101563 343.2000122070313 499.0781860351563 343.2000122070313 496.1292419433594 C 343.2000122070313 493.16064453125 344.1805419921875 490.6249389648438 346.1976318359375 488.3772583007813 L 346.2003173828125 488.374267578125 L 346.2030334472656 488.371337890625 C 348.3995056152344 486.0014953613281 351.1826477050781 484.7998962402344 354.4751892089844 484.7998962402344 C 356.1293029785156 484.7998962402344 357.6626281738281 485.1006774902344 359.0326538085938 485.6939086914063 C 360.3959655761719 486.2842102050781 361.6456298828125 487.1849365234375 362.7469787597656 488.3709716796875 L 362.7498779296875 488.3740844726563 L 362.752685546875 488.3772583007813 C 364.7698059082031 490.6247863769531 365.7503356933594 493.1604614257813 365.7503356933594 496.1292419433594 C 365.7503356933594 499.179443359375 364.7142028808594 501.7533264160156 362.5826110839844 503.9979858398438 C 360.5235595703125 506.2223510742188 357.7957763671875 507.3503112792969 354.4751892089844 507.3503112792969 Z M 354.4751892089844 488.3990173339844 C 352.3771362304688 488.3990173339844 350.6350402832031 489.1461486816406 349.1493225097656 490.68310546875 C 347.6407165527344 492.2438049316406 346.9073486328125 494.0606689453125 346.9073486328125 496.2375793457031 C 346.9073486328125 497.59326171875 347.2514038085938 498.9158935546875 347.9299926757813 500.168701171875 C 348.5800170898438 501.3690185546875 349.4731140136719 502.2786865234375 350.6602783203125 502.94970703125 C 351.8239440917969 503.6073913574219 353.0361633300781 503.9137268066406 354.4751892089844 503.9137268066406 C 355.8944702148438 503.9137268066406 357.1423950195313 503.598388671875 358.2902221679688 502.94970703125 C 359.477294921875 502.2786865234375 360.370361328125 501.3690185546875 361.0204162597656 500.1687316894531 C 361.7085266113281 498.8983764648438 362.0429992675781 497.6124877929688 362.0429992675781 496.2375793457031 C 362.0429992675781 494.0924682617188 361.2897033691406 492.2247314453125 359.8042602539063 490.6863708496094 C 358.2639465332031 489.1472473144531 356.5207214355469 488.3990173339844 354.4751892089844 488.3990173339844 Z"/>
        <path class="cls-4" d="M 354.4751892089844 506.8503112792969 C 357.6156921386719 506.8503112792969 360.2146911621094 505.8215026855469 362.2181091308594 503.6557312011719 C 364.2757263183594 501.4898376464844 365.2503356933594 498.9990539550781 365.2503356933594 496.1292419433594 C 365.2503356933594 493.2595520019531 364.2757263183594 490.8228454589844 362.3805847167969 488.7112121582031 C 360.2688598632813 486.4370422363281 357.6698303222656 485.2998962402344 354.4751892089844 485.2998962402344 C 351.2805786132813 485.2998962402344 348.6273803710938 486.4911804199219 346.5697631835938 488.7112121582031 C 344.6747131347656 490.8229064941406 343.7000122070313 493.2595520019531 343.7000122070313 496.1292419433594 C 343.7000122070313 498.9990539550781 344.7288208007813 501.4898376464844 346.7322998046875 503.6557312011719 C 348.7356567382813 505.7674255371094 351.334716796875 506.8503112792969 354.4751892089844 506.8503112792969 M 354.4751892089844 487.8990173339844 C 356.6410217285156 487.8990173339844 358.5362243652344 488.7112121582031 360.1605834960938 490.3356018066406 C 361.7308044433594 491.9600524902344 362.5429992675781 493.9634704589844 362.5429992675781 496.2375793457031 C 362.5429992675781 497.7536926269531 362.1640014648438 499.1072692871094 361.4600830078125 500.4068298339844 C 360.7562255859375 501.7064514160156 359.7815246582031 502.6810607910156 358.5362243652344 503.3849792480469 C 357.2908020019531 504.0888366699219 355.9371948242188 504.4137268066406 354.4751892089844 504.4137268066406 C 352.9591064453125 504.4137268066406 351.6595764160156 504.0888366699219 350.4142456054688 503.3849792480469 C 349.1688537597656 502.6810607910156 348.1941528320313 501.7064514160156 347.4903259277344 500.4068298339844 C 346.7864379882813 499.1072692871094 346.4073486328125 497.6995544433594 346.4073486328125 496.2375793457031 C 346.4073486328125 493.9092102050781 347.2195739746094 491.9600524902344 348.7898254394531 490.3356018066406 C 350.3600463867188 488.7112121582031 352.2551574707031 487.8990173339844 354.4751892089844 487.8990173339844 M 354.4751892089844 507.8503112792969 C 351.0632629394531 507.8503112792969 348.214111328125 506.6706237792969 346.0068359375 504.343994140625 L 346.0025024414063 504.3394165039063 L 345.9981994628906 504.3347778320313 C 343.8096923828125 501.9688415527344 342.7000122070313 499.2080993652344 342.7000122070313 496.1292419433594 C 342.7000122070313 494.5865173339844 342.9666748046875 493.1207275390625 343.4926147460938 491.7725524902344 C 344.0099182128906 490.446533203125 344.7947998046875 489.1918334960938 345.8255004882813 488.0433044433594 L 345.8308715820313 488.0373229980469 L 345.8363342285156 488.0314331054688 C 346.963623046875 486.815185546875 348.2623596191406 485.8815002441406 349.6965026855469 485.25634765625 C 351.1524353027344 484.6217041015625 352.7602233886719 484.2998962402344 354.4751892089844 484.2998962402344 C 356.1980285644531 484.2998962402344 357.7982177734375 484.6145324707031 359.2313232421875 485.2350769042969 C 360.6585388183594 485.8530578613281 361.9646606445313 486.7936706542969 363.1133728027344 488.03076171875 L 363.119140625 488.0369873046875 L 363.1248168945313 488.0432739257813 C 364.1555480957031 489.1917419433594 364.9404602050781 490.4464416503906 365.457763671875 491.7725219726563 C 365.9836730957031 493.1206665039063 366.2503356933594 494.5864868164063 366.2503356933594 496.1292419433594 C 366.2503356933594 497.6942138671875 365.9757995605469 499.1741333007813 365.4342956542969 500.52783203125 C 364.8875732421875 501.8946838378906 364.051025390625 503.1770935058594 362.9479064941406 504.3394165039063 C 360.7905578613281 506.6690368652344 357.9399108886719 507.8503112792969 354.4751892089844 507.8503112792969 Z M 354.4751892089844 488.8990173339844 C 352.5198669433594 488.8990173339844 350.8953247070313 489.5962524414063 349.5088195800781 491.0306091308594 C 348.0947570800781 492.4934997558594 347.4073486328125 494.1967163085938 347.4073486328125 496.2375793457031 C 347.4073486328125 497.5091857910156 347.7311096191406 498.751708984375 348.36962890625 499.9305725097656 C 348.9736328125 501.0458374023438 349.8033447265625 501.8910217285156 350.9063110351563 502.5144348144531 C 351.9918518066406 503.1279602050781 353.1258850097656 503.4137268066406 354.4751892089844 503.4137268066406 C 355.8059692382813 503.4137268066406 356.9734191894531 503.1195678710938 358.0442199707031 502.514404296875 C 359.1470336914063 501.8910217285156 359.9767761230469 501.0458374023438 360.5807495117188 499.9306030273438 C 361.228271484375 498.7351989746094 361.5429992675781 497.5272216796875 361.5429992675781 496.2375793457031 C 361.5429992675781 494.2278747558594 360.8378601074219 492.4779968261719 359.4473571777344 491.0365905761719 C 358.0064086914063 489.5982055664063 356.3799438476563 488.8990173339844 354.4751892089844 488.8990173339844 Z"/>
      </g>
      <g id="Path_42" data-name="Path 42" class="cls-2" transform="translate(-211.8 -471.242)">
        <path class="cls-3" d="M 222.5751495361328 501.2518310546875 C 219.3058776855469 501.2518310546875 216.5787353515625 500.1245727539063 214.4694671630859 497.9013366699219 C 212.4234924316406 495.7447814941406 211.3571472167969 493.1181640625 211.300048828125 490.0944519042969 L 211.2999572753906 490.0897521972656 L 211.2999572753906 490.0850219726563 L 211.2999572753906 490.0308837890625 L 211.2999572753906 472.0000305175781 L 211.2999572753906 471.5000305175781 L 211.7999572753906 471.5000305175781 L 214.50732421875 471.5000305175781 L 215.00732421875 471.5000305175781 L 215.00732421875 472.0000305175781 L 215.00732421875 481.6101989746094 C 217.0703735351563 479.6792297363281 219.6114959716797 478.7015380859375 222.5751495361328 478.7015380859375 C 224.2292633056641 478.7015380859375 225.7626190185547 479.0023193359375 227.1325988769531 479.5954895019531 C 228.4959411621094 480.185791015625 229.7456207275391 481.0864562988281 230.8469390869141 482.2725219726563 L 230.8498229980469 482.275634765625 L 230.8526611328125 482.2787780761719 C 232.8697814941406 484.5264282226563 233.8503112792969 487.0621643066406 233.8503112792969 490.0308837890625 C 233.8503112792969 493.0808715820313 232.8143463134766 495.6545104980469 230.6830444335938 497.8990173339844 C 228.6239471435547 500.1236877441406 225.8959808349609 501.2518310546875 222.5751495361328 501.2518310546875 Z M 222.5751495361328 482.300537109375 C 220.4771575927734 482.300537109375 218.7350463867188 483.0476989746094 217.249267578125 484.5846862792969 C 215.7406768798828 486.1452941894531 215.00732421875 487.962158203125 215.00732421875 490.13916015625 C 215.00732421875 491.4950256347656 215.3513793945313 492.8176574707031 216.0299072265625 494.0702514648438 C 216.6800842285156 495.2705688476563 217.5731811523438 496.1802062988281 218.7602081298828 496.8512268066406 C 219.9238586425781 497.5089111328125 221.1360931396484 497.8152465820313 222.5751495361328 497.8152465820313 C 223.9944610595703 497.8152465820313 225.2423400878906 497.4999084472656 226.3901062011719 496.8511962890625 C 227.5771484375 496.1802062988281 228.4702301025391 495.2705688476563 229.1204071044922 494.0702819824219 C 229.8085021972656 492.7999877929688 230.1429901123047 491.5141296386719 230.1429901123047 490.13916015625 C 230.1429901123047 487.9937133789063 229.3894958496094 486.1257934570313 227.9036407470703 484.58740234375 C 226.3634033203125 483.0486450195313 224.6203460693359 482.300537109375 222.5751495361328 482.300537109375 Z"/>
        <path class="cls-4" d="M 222.5751495361328 500.7518310546875 C 225.7156677246094 500.7518310546875 228.3146820068359 499.7230224609375 230.318115234375 497.5571899414063 C 232.3756866455078 495.3914184570313 233.3503112792969 492.900634765625 233.3503112792969 490.0308837890625 C 233.3503112792969 487.1611328125 232.3756866455078 484.7244873046875 230.4805297851563 482.6127319335938 C 228.3688201904297 480.3385620117188 225.769775390625 479.2015380859375 222.5751495361328 479.2015380859375 C 219.3805084228516 479.2015380859375 216.7273101806641 480.3927612304688 214.6697845458984 482.6668701171875 C 214.6156005859375 482.7210693359375 214.5614624023438 482.7752075195313 214.50732421875 482.829345703125 L 214.50732421875 472.0000305175781 L 211.7999572753906 472.0000305175781 L 211.7999572753906 490.0308837890625 L 211.7999572753906 490.0850219726563 C 211.8541412353516 492.9547119140625 212.8287658691406 495.4454956054688 214.8321990966797 497.5571899414063 C 216.8356323242188 499.6688842773438 219.4346466064453 500.7518310546875 222.5751495361328 500.7518310546875 M 222.5751495361328 481.800537109375 C 224.7409973144531 481.800537109375 226.6361236572266 482.61279296875 228.2605133056641 484.2371826171875 C 229.830810546875 485.861572265625 230.6429901123047 487.8649291992188 230.6429901123047 490.13916015625 C 230.6429901123047 491.6552124023438 230.2639770507813 493.0089111328125 229.5600433349609 494.3084106445313 C 228.8561401367188 495.60791015625 227.8815155029297 496.58251953125 226.6361236572266 497.2864990234375 C 225.3907623291016 497.9903564453125 224.0370941162109 498.3152465820313 222.5751495361328 498.3152465820313 C 221.0590667724609 498.3152465820313 219.7595062255859 497.9903564453125 218.51416015625 497.2864990234375 C 217.268798828125 496.58251953125 216.2941741943359 495.60791015625 215.5902709960938 494.3084106445313 C 214.8863372802734 493.0089111328125 214.50732421875 491.60107421875 214.50732421875 490.13916015625 C 214.50732421875 487.810791015625 215.3195037841797 485.861572265625 216.8897705078125 484.2371826171875 C 218.4600219726563 482.61279296875 220.3551330566406 481.800537109375 222.5751495361328 481.800537109375 M 222.5751495361328 501.7518310546875 C 219.1632995605469 501.7518310546875 216.3141174316406 500.5721130371094 214.1067504882813 498.2454528808594 C 211.97216796875 495.9955444335938 210.8596649169922 493.2563171386719 210.8001403808594 490.1039123535156 L 210.7999572753906 490.0944519042969 L 210.7999572753906 490.0850219726563 L 210.7999572753906 490.0308837890625 L 210.7999572753906 472.0000305175781 L 210.7999572753906 471.0000305175781 L 211.7999572753906 471.0000305175781 L 214.50732421875 471.0000305175781 L 215.50732421875 471.0000305175781 L 215.50732421875 472.0000305175781 L 215.50732421875 480.5265808105469 C 217.5009155273438 478.9822082519531 219.8697662353516 478.2015380859375 222.5751495361328 478.2015380859375 C 224.2980041503906 478.2015380859375 225.898193359375 478.5161437988281 227.3312683105469 479.1366577148438 C 228.7584991455078 479.7546081542969 230.0646209716797 480.6951904296875 231.2133331298828 481.9322814941406 L 231.2191009521484 481.9385070800781 L 231.2247772216797 481.94482421875 C 232.2555084228516 483.0933532714844 233.0404357910156 484.3480834960938 233.5577239990234 485.6741333007813 C 234.0836486816406 487.0222778320313 234.3503112792969 488.4880981445313 234.3503112792969 490.0308837890625 C 234.3503112792969 491.5958251953125 234.0757598876953 493.0757141113281 233.5342864990234 494.4294128417969 C 232.9874725341797 495.7964172363281 232.1508483886719 497.0788879394531 231.0475616455078 498.2412719726563 C 228.8902740478516 500.5706481933594 226.0397186279297 501.7518310546875 222.5751495361328 501.7518310546875 Z M 222.5751495361328 482.800537109375 C 220.619873046875 482.800537109375 218.995361328125 483.497802734375 217.6087646484375 484.9322204589844 C 216.1947021484375 486.3949890136719 215.50732421875 488.0982055664063 215.50732421875 490.13916015625 C 215.50732421875 491.4109497070313 215.8310699462891 492.6534423828125 216.4695587158203 493.8320922851563 C 217.0736694335938 494.9473571777344 217.9034271240234 495.7925415039063 219.0062713623047 496.4159545898438 C 220.0917816162109 497.0294799804688 221.225830078125 497.3152465820313 222.5751495361328 497.3152465820313 C 223.9059600830078 497.3152465820313 225.0733795166016 497.0210876464844 226.1440887451172 496.4159240722656 C 227.2468872070313 495.7925415039063 228.07666015625 494.9473571777344 228.6807556152344 493.8321228027344 C 229.3282470703125 492.6368103027344 229.6429901123047 491.4288330078125 229.6429901123047 490.13916015625 C 229.6429901123047 488.1294860839844 228.9379577636719 486.3797302246094 227.5475921630859 484.9384765625 C 226.1065063476563 483.4998779296875 224.4799194335938 482.800537109375 222.5751495361328 482.800537109375 Z"/>
      </g>
    </g>
  </g>
</svg>
