<svg xmlns="http://www.w3.org/2000/svg" viewBox="-744 1791.989 54.593 54.594">
  <defs>
    <style>
      .cls-1, .cls-2 {
        fill: #ff6000;
      }

      .cls-1 {
        opacity: 0.297;
      }

      .cls-3 {
        fill: #fff;
      }
    </style>
  </defs>
  <g id="Group_104" data-name="Group 104" transform="translate(-952.976 1689)">
    <g id="Group_103" data-name="Group 103" transform="translate(208.975 102.989)">
      <ellipse id="Ellipse_44" data-name="Ellipse 44" class="cls-1" cx="27.297" cy="27.297" rx="27.297" ry="27.297"/>
      <path id="Path_191" data-name="Path 191" class="cls-2" d="M19.056,0A19.056,19.056,0,1,1,0,19.056,19.056,19.056,0,0,1,19.056,0Z" transform="translate(8.241 8.241)"/>
    </g>
    <path id="Subtraction_5" data-name="Subtraction 5" class="cls-3" d="M8.883,22.511h0a3.454,3.454,0,0,1-.777-.1c-.258-.147-6.332-3.594-7.223-4.149a2.064,2.064,0,0,1-.521-.454A1.7,1.7,0,0,1,.1,17.361a1.35,1.35,0,0,1-.1-.476C0,16.753.022,3.759,0,2.817A2.04,2.04,0,0,1,.076,2.2a1.646,1.646,0,0,1,.186-.419A1.2,1.2,0,0,1,.54,1.467c.02-.012,2-1.231,2.5-1.428A.513.513,0,0,1,3.226,0a.348.348,0,0,1,.218.075.527.527,0,0,1,.135.165.88.88,0,0,1,.088.239V5.444l.019-.011c.631-.362,3.806-2.18,4.4-2.471a1.474,1.474,0,0,1,.652-.142,2.05,2.05,0,0,1,.738.142c.06.034,6.024,3.446,7.1,4.115a2.6,2.6,0,0,1,.613.515,1.646,1.646,0,0,1,.284.469,1.036,1.036,0,0,1,.078.474c0,.075.045,7.534,0,8.3a1.584,1.584,0,0,1-.13.534,2.036,2.036,0,0,1-.242.413,2.141,2.141,0,0,1-.337.36c-.069.04-6.867,4.042-7.376,4.264A1.467,1.467,0,0,1,8.883,22.511ZM3.7,10.283c0,.164-.012,4.014-.01,4.581a.963.963,0,0,0,.082.385,1.15,1.15,0,0,0,.178.282,1.256,1.256,0,0,0,.259.232L8.215,18.1l-.026-5.254Zm10.136,0L9.3,12.932,9.32,18.1c.026-.015,3.468-1.988,3.972-2.282a.964.964,0,0,0,.292-.264,1.145,1.145,0,0,0,.155-.3,1.241,1.241,0,0,0,.072-.34ZM8.8,7.046a1.28,1.28,0,0,0-.546.128l-4.03,2.3,4.563,2.6,4.467-2.6c-.026-.015-3.46-2.012-3.963-2.3A.979.979,0,0,0,8.8,7.046Z" transform="translate(227.444 119.107)"/>
  </g>
</svg>
