<svg xmlns="http://www.w3.org/2000/svg" viewBox="711 7691.863 35.136 35.137">
  <defs>
    <style>
      .cls-1 {
        fill: #29475b;
        fill-rule: evenodd;
        opacity: 0.404;
      }
    </style>
  </defs>
  <path id="Path_493" data-name="Path 493" class="cls-1" d="M35.028,15.618a1.144,1.144,0,0,0-1.129-.865A3.879,3.879,0,0,1,31.244,8a.976.976,0,0,0,.107-1.325,17.384,17.384,0,0,0-2.783-2.811.978.978,0,0,0-1.335.108,4.049,4.049,0,0,1-4.382.984,3.9,3.9,0,0,1-2.373-3.814A.975.975,0,0,0,19.615.117a17.54,17.54,0,0,0-3.952-.01.978.978,0,0,0-.87,1.005A3.909,3.909,0,0,1,12.387,4.86a4.06,4.06,0,0,1-4.349-.99.98.98,0,0,0-1.326-.112,17.45,17.45,0,0,0-2.842,2.81.977.977,0,0,0,.1,1.335,3.893,3.893,0,0,1,.982,4.383,4.062,4.062,0,0,1-3.823,2.375.955.955,0,0,0-1.015.862,17.6,17.6,0,0,0-.008,4,1.162,1.162,0,0,0,1.152.864A3.853,3.853,0,0,1,4.88,22.791,3.906,3.906,0,0,1,3.9,27.135a.976.976,0,0,0-.107,1.324A17.447,17.447,0,0,0,6.57,31.271a.977.977,0,0,0,1.337-.106,4.043,4.043,0,0,1,4.38-.985,3.9,3.9,0,0,1,2.377,3.813.976.976,0,0,0,.862,1.026,17.485,17.485,0,0,0,3.952.011.978.978,0,0,0,.87-1.006,3.9,3.9,0,0,1,2.4-3.746,4.054,4.054,0,0,1,4.351.99.982.982,0,0,0,1.326.111,17.491,17.491,0,0,0,2.842-2.81.975.975,0,0,0-.1-1.335,3.893,3.893,0,0,1-.984-4.383,3.933,3.933,0,0,1,3.594-2.382l.217.006a.978.978,0,0,0,1.028-.861A17.584,17.584,0,0,0,35.028,15.618ZM17.6,23.466a5.86,5.86,0,1,1,5.86-5.86A5.866,5.866,0,0,1,17.6,23.466Z" transform="translate(710.997 7691.863)"/>
</svg>
