<svg xmlns="http://www.w3.org/2000/svg" viewBox="319 4665 19.919 23.316">
  <defs>
    <style>
      .cls-1 {
        fill: #fff;
      }
    </style>
  </defs>
  <path id="Path_490" data-name="Path 490" class="cls-1" d="M54.9,20.786c-.261-.639-.528-1.278-.818-1.908a.9.9,0,0,0-1.2-.586c-.78.179-1.545.416-2.324.576a8.768,8.768,0,0,1-4.5-.126,5.313,5.313,0,0,1-3.467-3.68h5.055a.715.715,0,0,0,.717-.717V12.753a.715.715,0,0,0-.717-.717H42.1c0-.445,0-.872,0-1.3h5.539a.715.715,0,0,0,.717-.717V8.429a.715.715,0,0,0-.717-.717H42.8a.073.073,0,0,1,.01-.048A5.151,5.151,0,0,1,45.629,4.73a8.457,8.457,0,0,1,4.934-.281c.789.16,1.564.4,2.353.581a.887.887,0,0,0,1.157-.576c.286-.62.547-1.249.809-1.883a.952.952,0,0,0-.46-1.346,2.993,2.993,0,0,0-.436-.208A13.65,13.65,0,0,0,46.762.164,10.315,10.315,0,0,0,41.973,2.14a10.5,10.5,0,0,0-3.6,5.326l-.082.247H35.8a.715.715,0,0,0-.717.717v1.593a.715.715,0,0,0,.717.717h1.961v1.3H35.8a.715.715,0,0,0-.717.717v1.593a.715.715,0,0,0,.717.717h2.363c.179.581.329,1.172.557,1.729a9.805,9.805,0,0,0,6.217,5.917,12.839,12.839,0,0,0,7.519.092,12.5,12.5,0,0,0,1.922-.7A.917.917,0,0,0,54.9,20.786Z" transform="translate(283.912 4665)"/>
</svg>
